<svg enable-background="new 0 0 24 24" height="512" viewBox="0 0 24 24" width="512" xmlns="http://www.w3.org/2000/svg"><path d="m12 22.8c-.16 0-.321-.057-.449-.171-.312-.277-7.651-6.878-7.651-13.27 0-4.499 3.634-8.159 8.1-8.159s8.1 3.66 8.1 8.159c0 6.392-7.339 12.993-7.651 13.271-.128.113-.289.17-.449.17z" fill="#f44336"/><path d="m12 13.05c-2.233 0-4.05-1.817-4.05-4.05s1.817-4.05 4.05-4.05 4.05 1.817 4.05 4.05-1.817 4.05-4.05 4.05z" fill="#fff"/><path d="m12 24c-.178 0-.356-.063-.499-.189-.347-.309-8.501-7.643-8.501-14.746 0-4.999 4.038-9.065 9-9.065s9 4.066 9 9.065c0 7.103-8.154 14.437-8.501 14.745-.143.127-.321.19-.499.19zm0-22.5c-4.136 0-7.5 3.394-7.5 7.565 0 5.478 5.75 11.462 7.5 13.155 1.75-1.693 7.5-7.678 7.5-13.155 0-4.171-3.364-7.565-7.5-7.565z"/><path d="m12 14c-2.757 0-5-2.243-5-5s2.243-5 5-5 5 2.243 5 5-2.243 5-5 5zm0-8.5c-1.93 0-3.5 1.57-3.5 3.5s1.57 3.5 3.5 3.5 3.5-1.57 3.5-3.5-1.57-3.5-3.5-3.5z"/></svg>