<svg xmlns="http://www.w3.org/2000/svg" viewBox="0 0 500 500"><g id="freepik--background-complete--inject-35"><rect y="382.4" width="500" height="0.25" style="fill:#ebebeb"></rect><rect x="359" y="391.92" width="90.9" height="0.25" style="fill:#ebebeb"></rect><rect x="306.33" y="389.21" width="24.89" height="0.25" style="fill:#ebebeb"></rect><rect x="349.52" y="401.21" width="38.59" height="0.25" style="fill:#ebebeb"></rect><rect x="52.46" y="399.53" width="22.64" height="0.25" style="fill:#ebebeb"></rect><rect x="84" y="399.53" width="26.89" height="0.25" style="fill:#ebebeb"></rect><rect x="178.31" y="395.31" width="46.84" height="0.25" style="fill:#ebebeb"></rect><path d="M237,337.8H43.91a5.71,5.71,0,0,1-5.7-5.71V60.66A5.71,5.71,0,0,1,43.91,55H237a5.71,5.71,0,0,1,5.71,5.71V332.09A5.71,5.71,0,0,1,237,337.8ZM43.91,55.2a5.46,5.46,0,0,0-5.45,5.46V332.09a5.46,5.46,0,0,0,5.45,5.46H237a5.47,5.47,0,0,0,5.46-5.46V60.66A5.47,5.47,0,0,0,237,55.2Z" style="fill:#ebebeb"></path><path d="M453.31,337.8H260.21a5.72,5.72,0,0,1-5.71-5.71V60.66A5.72,5.72,0,0,1,260.21,55h193.1A5.71,5.71,0,0,1,459,60.66V332.09A5.71,5.71,0,0,1,453.31,337.8ZM260.21,55.2a5.47,5.47,0,0,0-5.46,5.46V332.09a5.47,5.47,0,0,0,5.46,5.46h193.1a5.47,5.47,0,0,0,5.46-5.46V60.66a5.47,5.47,0,0,0-5.46-5.46Z" style="fill:#ebebeb"></path><rect x="38.46" y="89.84" width="420.31" height="17.88" style="fill:#fafafa"></rect><rect x="38.46" y="118.03" width="420.31" height="42.2" style="fill:#fafafa"></rect><rect x="55.46" y="72.76" width="149.38" height="309.89" style="fill:#ebebeb"></rect><rect x="-20.02" y="157.79" width="300.34" height="139.83" transform="translate(357.85 97.56) rotate(90)" style="fill:#e6e6e6"></rect><rect x="60.23" y="77.53" width="21.01" height="300.34" transform="translate(141.47 455.41) rotate(180)" style="fill:#e0e0e0"></rect><rect x="204.84" y="72.76" width="21.01" height="309.89" transform="translate(430.69 455.41) rotate(180)" style="fill:#e0e0e0"></rect><rect x="57.84" y="133.72" width="144.61" height="4.77" style="fill:#ebebeb"></rect><rect x="57.84" y="194.68" width="144.61" height="4.77" style="fill:#ebebeb"></rect><rect x="57.84" y="255.65" width="144.61" height="4.77" style="fill:#ebebeb"></rect><rect x="57.84" y="316.61" width="144.61" height="4.77" style="fill:#ebebeb"></rect><rect x="70.73" y="99.11" width="34.61" height="34.61" style="fill:#f5f5f5"></rect><polyline points="105.34 99.11 70.73 99.11 88.04 116.42 105.34 99.11" style="fill:#ebebeb"></polyline><rect x="105.34" y="99.11" width="11.3" height="34.61" transform="translate(221.99 232.84) rotate(180)" style="fill:#f0f0f0"></rect><rect x="108.42" y="99.11" width="34.61" height="34.61" style="fill:#f5f5f5"></rect><polyline points="143.02 99.11 108.42 99.11 125.72 116.42 143.02 99.11" style="fill:#ebebeb"></polyline><rect x="143.02" y="99.11" width="11.3" height="34.61" transform="translate(297.35 232.84) rotate(180)" style="fill:#f0f0f0"></rect><rect x="146.1" y="99.11" width="34.61" height="34.61" style="fill:#f5f5f5"></rect><polyline points="180.71 99.11 146.1 99.11 163.4 116.42 180.71 99.11" style="fill:#ebebeb"></polyline><rect x="180.71" y="99.11" width="11.3" height="34.61" transform="translate(372.72 232.84) rotate(180)" style="fill:#f0f0f0"></rect><rect x="70.73" y="298.16" width="34.61" height="18.45" style="fill:#f5f5f5"></rect><polyline points="105.34 298.16 70.73 298.16 88.04 307.38 105.34 298.16" style="fill:#fafafa"></polyline><rect x="105.34" y="298.16" width="11.3" height="18.45" transform="translate(221.99 614.77) rotate(180)" style="fill:#f0f0f0"></rect><rect x="108.42" y="298.16" width="34.61" height="18.45" style="fill:#f5f5f5"></rect><polyline points="143.02 298.16 108.42 298.16 125.72 307.38 143.02 298.16" style="fill:#fafafa"></polyline><rect x="143.02" y="298.16" width="11.3" height="18.45" transform="translate(297.35 614.77) rotate(180)" style="fill:#f0f0f0"></rect><rect x="146.1" y="298.16" width="34.61" height="18.45" style="fill:#f5f5f5"></rect><polyline points="180.71 298.16 146.1 298.16 163.4 307.38 180.71 298.16" style="fill:#fafafa"></polyline><rect x="180.71" y="298.16" width="11.3" height="18.45" transform="translate(372.72 614.77) rotate(180)" style="fill:#f0f0f0"></rect><rect x="89.98" y="279.71" width="34.61" height="18.45" style="fill:#f5f5f5"></rect><polyline points="124.59 279.71 89.98 279.71 107.29 288.93 124.59 279.71" style="fill:#fafafa"></polyline><rect x="124.59" y="279.71" width="11.3" height="18.45" transform="translate(260.49 577.86) rotate(180)" style="fill:#f0f0f0"></rect><rect x="127.67" y="279.71" width="34.61" height="18.45" style="fill:#f5f5f5"></rect><polyline points="162.27 279.71 127.67 279.71 144.97 288.93 162.27 279.71" style="fill:#fafafa"></polyline><rect x="162.27" y="279.71" width="11.3" height="18.45" transform="translate(335.85 577.86) rotate(180)" style="fill:#f0f0f0"></rect><path d="M81.91,153.14H75.33l-1.56,3.59a37,37,0,0,0-3,14.66v20.68a2.61,2.61,0,0,0,2.62,2.61H83.89a2.61,2.61,0,0,0,2.61-2.61V171.39a37,37,0,0,0-3-14.66Z" style="fill:#fff"></path><rect x="70.73" y="173.91" width="9.47" height="12.72" style="fill:#f5f5f5"></rect><rect x="74.26" y="151.92" width="8.72" height="2.43" rx="0.52" style="fill:#f0f0f0"></rect><path d="M102.69,153.14H96.11l-1.55,3.59a37,37,0,0,0-3,14.66v20.68a2.61,2.61,0,0,0,2.62,2.61h10.53a2.61,2.61,0,0,0,2.62-2.61V171.39a37,37,0,0,0-3-14.66Z" style="fill:#fff"></path><rect x="91.52" y="173.91" width="9.47" height="12.72" style="fill:#f5f5f5"></rect><rect x="95.04" y="151.92" width="8.72" height="2.43" rx="0.52" style="fill:#f0f0f0"></rect><path d="M123.48,153.14H116.9l-1.55,3.59a36.81,36.81,0,0,0-3,14.66v20.68a2.61,2.61,0,0,0,2.61,2.61h10.54a2.61,2.61,0,0,0,2.61-2.61V171.39a37,37,0,0,0-3-14.66Z" style="fill:#fff"></path><rect x="112.31" y="173.91" width="9.47" height="12.72" style="fill:#f5f5f5"></rect><rect x="115.83" y="151.92" width="8.72" height="2.43" rx="0.52" style="fill:#f0f0f0"></rect><path d="M144.27,153.14h-6.58l-1.56,3.59a37,37,0,0,0-3,14.66v20.68a2.61,2.61,0,0,0,2.61,2.61h10.54a2.61,2.61,0,0,0,2.61-2.61V171.39a36.81,36.81,0,0,0-3-14.66Z" style="fill:#fff"></path><rect x="133.1" y="173.91" width="9.47" height="12.72" style="fill:#f5f5f5"></rect><rect x="136.62" y="151.92" width="8.72" height="2.43" rx="0.52" style="fill:#f0f0f0"></rect><path d="M165.06,153.14h-6.59l-1.55,3.59a37,37,0,0,0-3,14.66v20.68a2.61,2.61,0,0,0,2.62,2.61H167a2.61,2.61,0,0,0,2.62-2.61V171.39a37,37,0,0,0-3-14.66Z" style="fill:#fff"></path><rect x="153.88" y="173.91" width="9.47" height="12.72" style="fill:#f5f5f5"></rect><rect x="157.41" y="151.92" width="8.72" height="2.43" rx="0.52" style="fill:#f0f0f0"></rect><path d="M185.84,153.14h-6.58l-1.55,3.59a36.81,36.81,0,0,0-3,14.66v20.68a2.61,2.61,0,0,0,2.61,2.61h10.54a2.61,2.61,0,0,0,2.61-2.61V171.39a37,37,0,0,0-3-14.66Z" style="fill:#fff"></path><rect x="174.67" y="173.91" width="9.47" height="12.72" style="fill:#f5f5f5"></rect><rect x="178.19" y="151.92" width="8.72" height="2.43" rx="0.52" style="fill:#f0f0f0"></rect><path d="M83.33,354.55H77.41l-1.4,2a14.52,14.52,0,0,0-2.73,8.28v11.68c0,.82,1,1.48,2.35,1.48h9.48c1.3,0,2.35-.66,2.35-1.48V364.86a14.52,14.52,0,0,0-2.73-8.28Z" style="fill:#fff"></path><rect x="73.28" y="366.28" width="8.52" height="7.19" style="fill:#f5f5f5"></rect><rect x="76.45" y="353.86" width="7.84" height="1.38" rx="0.37" style="fill:#f0f0f0"></rect><path d="M102,354.55H96.1l-1.39,2A14.52,14.52,0,0,0,92,364.86v11.68c0,.82,1,1.48,2.35,1.48h9.47c1.3,0,2.35-.66,2.35-1.48V364.86a14.52,14.52,0,0,0-2.73-8.28Z" style="fill:#fff"></path><rect x="91.98" y="366.28" width="8.52" height="7.19" style="fill:#f5f5f5"></rect><rect x="95.14" y="353.86" width="7.84" height="1.38" rx="0.37" style="fill:#f0f0f0"></rect><path d="M120.72,354.55H114.8l-1.4,2a14.52,14.52,0,0,0-2.73,8.28v11.68c0,.82,1,1.48,2.35,1.48h9.48c1.29,0,2.35-.66,2.35-1.48V364.86a14.46,14.46,0,0,0-2.74-8.28Z" style="fill:#fff"></path><rect x="110.67" y="366.28" width="8.52" height="7.19" style="fill:#f5f5f5"></rect><rect x="113.84" y="353.86" width="7.84" height="1.38" rx="0.37" style="fill:#f0f0f0"></rect><path d="M139.41,354.55h-5.92l-1.4,2a14.52,14.52,0,0,0-2.73,8.28v11.68c0,.82,1.06,1.48,2.35,1.48h9.48c1.3,0,2.35-.66,2.35-1.48V364.86a14.52,14.52,0,0,0-2.73-8.28Z" style="fill:#fff"></path><rect x="129.36" y="366.28" width="8.52" height="7.19" style="fill:#f5f5f5"></rect><rect x="132.53" y="353.86" width="7.84" height="1.38" rx="0.37" style="fill:#f0f0f0"></rect><path d="M158.1,354.55h-5.91l-1.4,2a14.52,14.52,0,0,0-2.73,8.28v11.68c0,.82,1.05,1.48,2.35,1.48h9.47c1.3,0,2.35-.66,2.35-1.48V364.86a14.52,14.52,0,0,0-2.73-8.28Z" style="fill:#fff"></path><rect x="148.06" y="366.28" width="8.52" height="7.19" style="fill:#f5f5f5"></rect><rect x="151.22" y="353.86" width="7.84" height="1.38" rx="0.37" style="fill:#f0f0f0"></rect><path d="M176.8,354.55h-5.92l-1.4,2a14.52,14.52,0,0,0-2.73,8.28v11.68c0,.82,1.05,1.48,2.35,1.48h9.48c1.29,0,2.35-.66,2.35-1.48V364.86a14.52,14.52,0,0,0-2.73-8.28Z" style="fill:#fff"></path><rect x="166.75" y="366.28" width="8.52" height="7.19" style="fill:#f5f5f5"></rect><rect x="169.92" y="353.86" width="7.84" height="1.38" rx="0.37" style="fill:#f0f0f0"></rect><path d="M96.2,329.88H90.28l-1.4,2a14.54,14.54,0,0,0-2.73,8.28v11.69c0,.81,1,1.47,2.35,1.47H98c1.3,0,2.35-.66,2.35-1.47V340.19a14.54,14.54,0,0,0-2.73-8.28Z" style="fill:#fff"></path><rect x="86.15" y="341.62" width="8.52" height="7.19" style="fill:#f5f5f5"></rect><rect x="89.32" y="329.19" width="7.84" height="1.38" rx="0.37" style="fill:#f0f0f0"></rect><path d="M114.89,329.88H109l-1.4,2a14.54,14.54,0,0,0-2.73,8.28v11.69c0,.81,1,1.47,2.35,1.47h9.48c1.3,0,2.35-.66,2.35-1.47V340.19a14.54,14.54,0,0,0-2.73-8.28Z" style="fill:#fff"></path><rect x="104.84" y="341.62" width="8.52" height="7.19" style="fill:#f5f5f5"></rect><rect x="108.01" y="329.19" width="7.84" height="1.38" rx="0.37" style="fill:#f0f0f0"></rect><path d="M133.58,329.88h-5.92l-1.39,2a14.47,14.47,0,0,0-2.73,8.28v11.69c0,.81,1,1.47,2.35,1.47h9.47c1.3,0,2.35-.66,2.35-1.47V340.19a14.54,14.54,0,0,0-2.73-8.28Z" style="fill:#fff"></path><rect x="123.54" y="341.62" width="8.52" height="7.19" style="fill:#f5f5f5"></rect><rect x="126.7" y="329.19" width="7.84" height="1.38" rx="0.37" style="fill:#f0f0f0"></rect><path d="M152.28,329.88h-5.92l-1.4,2a14.54,14.54,0,0,0-2.73,8.28v11.69c0,.81,1.05,1.47,2.35,1.47h9.47c1.3,0,2.35-.66,2.35-1.47V340.19a14.47,14.47,0,0,0-2.73-8.28Z" style="fill:#fff"></path><rect x="142.23" y="341.62" width="8.52" height="7.19" style="fill:#f5f5f5"></rect><rect x="145.4" y="329.19" width="7.84" height="1.38" rx="0.37" style="fill:#f0f0f0"></rect><rect x="73.03" y="231.67" width="65.14" height="23.98" style="fill:#fff"></rect><rect x="116.03" y="231.67" width="22.15" height="23.98" style="fill:#f5f5f5"></rect><g style="opacity:0.4"><rect x="73.03" y="242.37" width="65.14" height="2.57" style="fill:#e0e0e0"></rect><rect x="73.03" y="249.51" width="65.14" height="2.57" style="fill:#e0e0e0"></rect><rect x="73.03" y="235.23" width="65.14" height="2.57" style="fill:#e0e0e0"></rect></g><rect x="124.1" y="231.67" width="65.14" height="23.98" style="fill:#fff"></rect><rect x="167.1" y="231.67" width="22.15" height="23.98" style="fill:#f5f5f5"></rect><g style="opacity:0.4"><rect x="124.1" y="242.37" width="65.14" height="2.57" style="fill:#e0e0e0"></rect><rect x="124.1" y="249.51" width="65.14" height="2.57" style="fill:#e0e0e0"></rect><rect x="124.1" y="235.23" width="65.14" height="2.57" style="fill:#e0e0e0"></rect></g><rect x="95.18" y="207.69" width="65.14" height="23.98" style="fill:#fff"></rect><rect x="138.18" y="207.69" width="22.15" height="23.98" style="fill:#f5f5f5"></rect><g style="opacity:0.4"><rect x="95.18" y="218.39" width="65.14" height="2.57" style="fill:#e0e0e0"></rect><rect x="95.18" y="225.53" width="65.14" height="2.57" style="fill:#e0e0e0"></rect><rect x="95.18" y="211.25" width="65.14" height="2.57" style="fill:#e0e0e0"></rect></g><rect x="188.87" y="262.29" width="95.25" height="120.1" style="fill:#f0f0f0"></rect><polygon points="284.12 262.29 188.87 262.29 240.42 147.55 335.67 147.55 284.12 262.29" style="fill:#f0f0f0"></polygon><polygon points="196.36 257.44 243.56 152.4 328.17 152.4 280.98 257.44 196.36 257.44" style="fill:#e0e0e0"></polygon><polygon points="335.67 147.55 284.12 262.29 284.12 382.39 348.81 382.39 348.81 147.55 335.67 147.55" style="fill:#e0e0e0"></polygon><rect x="289.96" y="262.29" width="95.25" height="120.1" style="fill:#f0f0f0"></rect><polygon points="385.21 262.29 289.96 262.29 341.51 147.55 436.76 147.55 385.21 262.29" style="fill:#f0f0f0"></polygon><polygon points="297.45 257.44 344.65 152.4 429.26 152.4 382.07 257.44 297.45 257.44" style="fill:#e0e0e0"></polygon><polygon points="436.76 147.55 385.21 262.29 385.21 382.39 449.9 382.39 449.9 147.55 436.76 147.55" style="fill:#e0e0e0"></polygon><path d="M267.22,149.79c-13.17,5-22.26.11-22.7,8.59s14.65,6.49,27.77,2.8S282.27,144.11,267.22,149.79Z" style="fill:#f5f5f5"></path><path d="M277.21,149a9.44,9.44,0,0,0-3.78-.54c-.93.54-2,1.16-3.22,1.76-3.88,1.89-17.33,3.42-24.2,4.28a4.19,4.19,0,0,0-1.07,1.68,65.11,65.11,0,0,0,13.55-.66C268.32,154.16,274.89,151,277.21,149Z" style="fill:#ebebeb"></path><path d="M280.31,152a4.5,4.5,0,0,0-1.83-2.36c-1.5.8-3.35,2.12-5.76,3.37-4.47,2.32-19.74,4.51-28.2,5.79A4.7,4.7,0,0,0,245,161a89.69,89.69,0,0,0,13.73-1.28C269.56,158,277,154.52,280.31,152Z" style="fill:#ebebeb"></path><path d="M247.61,163.32a12.15,12.15,0,0,0,3.28.86c2.41-.37,5.18-.85,8.26-1.46A110.41,110.41,0,0,0,279,157.17a6.68,6.68,0,0,0,1.25-2.21c-1.66.54-3.84,1.6-6.77,2.69C269.29,159.21,256.21,161.69,247.61,163.32Z" style="fill:#ebebeb"></path><path d="M238.88,196.66c12.67,6.11,22.16,2.07,21.84,10.56s-15.16,5.16-27.9.33S224.39,189.67,238.88,196.66Z" style="fill:#fafafa"></path><path d="M229,195a9.5,9.5,0,0,1,3.81-.22c.87.63,1.87,1.34,3.05,2,3.69,2.22,17,4.93,23.72,6.4a4.1,4.1,0,0,1,.92,1.77,65.67,65.67,0,0,1-13.44-1.86C237.39,200.91,231.12,197.2,229,195Z" style="fill:#ebebeb"></path><path d="M225.64,197.68a4.55,4.55,0,0,1,2-2.19c1.42.93,3.15,2.41,5.44,3.88,4.25,2.7,19.27,6.23,27.58,8.26a4.81,4.81,0,0,1-.71,2.19,89.31,89.31,0,0,1-13.56-2.49C235.82,204.62,228.67,200.49,225.64,197.68Z" style="fill:#ebebeb"></path><path d="M257.21,211.87a12.51,12.51,0,0,1-3.34.56c-2.37-.58-5.09-1.31-8.1-2.18A111.48,111.48,0,0,1,226.46,203a6.56,6.56,0,0,1-1.05-2.32c1.6.69,3.68,1.94,6.5,3.28C236,205.85,248.78,209.48,257.21,211.87Z" style="fill:#ebebeb"></path><path d="M244.54,181.94c14,1.14,21.43-6.05,24.19,2s-12.29,10.28-25.92,10.36S228.51,180.64,244.54,181.94Z" style="fill:#f5f5f5"></path><path d="M234.72,183.91a9.28,9.28,0,0,1,3.48-1.57c1,.27,2.22.57,3.57.81,4.25.74,17.6-1.51,24.45-2.57a4.09,4.09,0,0,1,1.49,1.31A64.42,64.42,0,0,1,254.5,185C244.69,186.44,237.51,185.24,234.72,183.91Z" style="fill:#ebebeb"></path><path d="M232.57,187.66a4.44,4.44,0,0,1,1.1-2.77c1.66.35,3.8,1.11,6.47,1.65,4.94,1,20.22-1.12,28.71-2.23a4.84,4.84,0,0,1,.12,2.31,87.93,87.93,0,0,1-13.54,2.55C244.56,190.47,236.41,189.19,232.57,187.66Z" style="fill:#ebebeb"></path><path d="M267.12,189.52a11.66,11.66,0,0,1-2.91,1.73c-2.42.31-5.22.61-8.34.89a110.81,110.81,0,0,1-20.64.15,6.54,6.54,0,0,1-1.81-1.78c1.74.06,4.12.48,7.24.71C245.15,191.56,258.41,190.33,267.12,189.52Z" style="fill:#ebebeb"></path><path d="M222.41,228.85c13.47,4.09,22.22-1.36,23.21,7.07s-14.18,7.44-27.52,4.62S207,224.17,222.41,228.85Z" style="fill:#f5f5f5"></path><path d="M212.39,228.69a9.41,9.41,0,0,1,3.74-.8c1,.49,2.05,1,3.32,1.56,4,1.62,17.52,2.26,24.43,2.67a4.13,4.13,0,0,1,1.18,1.6,64.74,64.74,0,0,1-13.56.24C221.6,233.28,214.83,230.58,212.39,228.69Z" style="fill:#ebebeb"></path><path d="M209.49,231.9a4.58,4.58,0,0,1,1.67-2.48c1.55.7,3.48,1.9,6,3,4.62,2,20,3.19,28.53,3.91a4.75,4.75,0,0,1-.37,2.28,88.7,88.7,0,0,1-13.78-.38C220.62,237.19,212.92,234.21,209.49,231.9Z" style="fill:#ebebeb"></path><path d="M242.87,241.06a12.17,12.17,0,0,1-3.22,1.07c-2.43-.22-5.23-.51-8.33-.91A111.93,111.93,0,0,1,211.11,237a6.56,6.56,0,0,1-1.39-2.13c1.69.44,3.93,1.34,6.93,2.24C221,238.38,234.18,240,242.87,241.06Z" style="fill:#ebebeb"></path><path d="M263.37,166.8c-14,1.41-21.54-5.63-24.14,2.46s12.49,10,26.12,9.84S279.38,165.18,263.37,166.8Z" style="fill:#ebebeb"></path><path d="M273.24,168.57a9.56,9.56,0,0,0-3.51-1.5c-1,.29-2.21.61-3.56.88-4.24.82-17.63-1.16-24.49-2.08a4.05,4.05,0,0,0-1.47,1.34,64.7,64.7,0,0,0,13.27,2.84C263.32,171.29,270.48,170,273.24,168.57Z" style="fill:#f5f5f5"></path><path d="M275.46,172.28a4.45,4.45,0,0,0-1.16-2.75c-1.65.39-3.78,1.19-6.43,1.78-4.92,1.1-20.24-.72-28.75-1.66A4.81,4.81,0,0,0,239,172a89.36,89.36,0,0,0,13.6,2.29C263.53,175.33,271.65,173.89,275.46,172.28Z" style="fill:#f5f5f5"></path><path d="M241,174.83a11.89,11.89,0,0,0,3,1.67c2.42.26,5.23.51,8.35.72a111.16,111.16,0,0,0,20.64-.26,6.39,6.39,0,0,0,1.78-1.82c-1.74.1-4.12.56-7.23.86C263,176.43,249.68,175.47,241,174.83Z" style="fill:#f5f5f5"></path><path d="M240.31,212.63c-13.57,3.75-22.18-1.93-23.39,6.48s14,7.79,27.4,5.33S255.82,208.36,240.31,212.63Z" style="fill:#ebebeb"></path><path d="M250.33,212.73a9.46,9.46,0,0,0-3.71-.89c-1,.46-2.08,1-3.36,1.47-4,1.51-17.57,1.8-24.5,2a4.21,4.21,0,0,0-1.21,1.57,64.06,64.06,0,0,0,13.55.58C241,217.08,247.84,214.56,250.33,212.73Z" style="fill:#f5f5f5"></path><path d="M253.15,216a4.49,4.49,0,0,0-1.61-2.52c-1.56.66-3.52,1.81-6,2.83-4.67,1.91-20.08,2.68-28.62,3.18a4.84,4.84,0,0,0,.31,2.29,89.4,89.4,0,0,0,13.78,0C241.89,221,249.66,218.24,253.15,216Z" style="fill:#f5f5f5"></path><path d="M219.55,224.31a12.06,12.06,0,0,0,3.18,1.15c2.44-.15,5.24-.37,8.36-.69a110.67,110.67,0,0,0,20.31-3.71,6.34,6.34,0,0,0,1.44-2.09c-1.7.39-4,1.24-7,2.06C241.51,222.2,228.26,223.48,219.55,224.31Z" style="fill:#f5f5f5"></path><path d="M215.63,243.63c13.75,3,22-3.12,23.7,5.21s-13.55,8.54-27.07,6.79S199.91,240.19,215.63,243.63Z" style="fill:#ebebeb"></path><path d="M205.63,244.26a9.52,9.52,0,0,1,3.66-1.09c1,.41,2.12.87,3.43,1.29,4.11,1.3,17.64.86,24.57.73a4.17,4.17,0,0,1,1.3,1.5,64.4,64.4,0,0,1-13.5,1.31C215.17,248.11,208.21,246,205.63,244.26Z" style="fill:#f5f5f5"></path><path d="M203,247.69a4.51,4.51,0,0,1,1.47-2.6c1.6.58,3.62,1.62,6.19,2.51,4.76,1.65,20.19,1.6,28.74,1.65a4.79,4.79,0,0,1-.18,2.29,87.9,87.9,0,0,1-13.77.72C214.5,252.09,206.59,249.72,203,247.69Z" style="fill:#f5f5f5"></path><path d="M237,254.18a12.31,12.31,0,0,1-3.12,1.32c-2.44,0-5.26-.09-8.39-.24A111.91,111.91,0,0,1,205,252.64a6.56,6.56,0,0,1-1.56-2c1.72.3,4,1,7.09,1.68C214.94,253.25,228.24,253.81,237,254.18Z" style="fill:#f5f5f5"></path><path d="M253.49,255c13.36-4.43,22.25.8,23-7.66s-14.37-7.07-27.63-3.92S238.22,260.09,253.49,255Z" style="fill:#f5f5f5"></path><path d="M243.48,255.44a9.36,9.36,0,0,0,3.75.7c1-.51,2-1.08,3.28-1.64,4-1.72,17.46-2.7,24.36-3.29a4.16,4.16,0,0,0,1.14-1.63,65,65,0,0,0-13.57.11C252.57,250.62,245.87,253.48,243.48,255.44Z" style="fill:#ebebeb"></path><path d="M240.5,252.3a4.48,4.48,0,0,0,1.73,2.43c1.53-.73,3.43-2,5.89-3.14,4.56-2.13,19.91-3.7,28.42-4.64a4.79,4.79,0,0,0-.42-2.26,88.68,88.68,0,0,0-13.77.72C251.48,246.73,243.87,249.91,240.5,252.3Z" style="fill:#ebebeb"></path><path d="M273.63,242.3a11.56,11.56,0,0,0-3.24-1c-2.42.27-5.21.64-8.31,1.11A111.18,111.18,0,0,0,242,247.17a6.47,6.47,0,0,0-1.34,2.17c1.68-.48,3.9-1.45,6.87-2.42C251.8,245.53,265,243.58,273.63,242.3Z" style="fill:#ebebeb"></path><path d="M283.71,209.35c-12.41-6.62-22.06-3-21.4-11.44s15.36-4.54,27.9.8S297.91,216.92,283.71,209.35Z" style="fill:#fafafa"></path><path d="M293.51,211.45a9.47,9.47,0,0,1-3.82.06c-.84-.66-1.81-1.41-3-2.17-3.6-2.37-16.74-5.62-23.44-7.36a4.18,4.18,0,0,1-.85-1.8,64.51,64.51,0,0,1,13.35,2.4C285.37,205.16,291.48,209.12,293.51,211.45Z" style="fill:#ebebeb"></path><path d="M297,208.86a4.52,4.52,0,0,1-2.12,2.11c-1.38-1-3-2.54-5.28-4.1-4.13-2.87-19-7-27.22-9.37a4.7,4.7,0,0,1,.8-2.16,89.21,89.21,0,0,1,13.44,3C287.09,201.51,294.06,205.93,297,208.86Z" style="fill:#ebebeb"></path><path d="M266,193.41a12.18,12.18,0,0,1,3.36-.43c2.34.68,5,1.52,8,2.51a112.05,112.05,0,0,1,19,8.06,6.85,6.85,0,0,1,.95,2.36c-1.57-.75-3.6-2.08-6.37-3.54C287,200.28,274.33,196.13,266,193.41Z" style="fill:#ebebeb"></path><path d="M277.45,223.83c-14-1.71-21.65,5.17-24.08-3s12.69-9.77,26.31-9.3S293.42,225.78,277.45,223.83Z" style="fill:#f5f5f5"></path><path d="M287.35,222.26a9.53,9.53,0,0,1-3.54,1.43c-1-.32-2.2-.67-3.54-1-4.22-.91-17.65.79-24.53,1.58a4.08,4.08,0,0,1-1.43-1.38,65.45,65.45,0,0,1,13.31-2.57C277.49,219.33,284.62,220.81,287.35,222.26Z" style="fill:#ebebeb"></path><path d="M289.65,218.6a4.49,4.49,0,0,1-1.22,2.72c-1.64-.42-3.75-1.27-6.39-1.92-4.89-1.19-20.25.31-28.77,1.07a4.77,4.77,0,0,1,0-2.31,88.59,88.59,0,0,1,13.64-2C277.78,215.3,285.88,216.91,289.65,218.6Z" style="fill:#ebebeb"></path><path d="M255.2,215.33a11.92,11.92,0,0,1,3-1.61c2.43-.21,5.24-.4,8.37-.54a111.35,111.35,0,0,1,20.63.68,6.47,6.47,0,0,1,1.74,1.86c-1.74-.14-4.11-.65-7.22-1C277.23,214.19,263.94,214.87,255.2,215.33Z" style="fill:#ebebeb"></path><path d="M301.46,177.85c-13.28-4.63-22.25.46-22.9-8s14.48-6.85,27.69-3.5S316.66,183.15,301.46,177.85Z" style="fill:#f5f5f5"></path><path d="M311.47,178.42a9.33,9.33,0,0,1-3.76.64c-.94-.52-2-1.11-3.26-1.68-3.92-1.79-17.41-3-24.3-3.67a4.08,4.08,0,0,1-1.11-1.65,64.52,64.52,0,0,1,13.56.32C302.46,173.46,309.11,176.43,311.47,178.42Z" style="fill:#ebebeb"></path><path d="M314.5,175.33a4.49,4.49,0,0,1-1.77,2.4c-1.52-.76-3.4-2-5.84-3.23-4.53-2.2-19.85-4-28.34-5.07a4.79,4.79,0,0,1,.45-2.26,89.82,89.82,0,0,1,13.76.94C303.6,169.59,311.17,172.88,314.5,175.33Z" style="fill:#ebebeb"></path><path d="M281.52,164.82a12,12,0,0,1,3.26-.93c2.42.31,5.2.72,8.29,1.24a111.56,111.56,0,0,1,20,5.05,6.37,6.37,0,0,1,1.3,2.18c-1.67-.5-3.87-1.5-6.83-2.52C303.3,168.38,290.17,166.23,281.52,164.82Z" style="fill:#ebebeb"></path><path d="M258,238.19c14.05-.85,21.3,6.49,24.22-1.48s-12.07-10.53-25.69-10.89S242,239.16,258,238.19Z" style="fill:#ebebeb"></path><path d="M248.24,236a9.4,9.4,0,0,0,3.45,1.64c1-.25,2.23-.52,3.59-.74,4.26-.64,17.56,1.88,24.38,3.08a4.08,4.08,0,0,0,1.52-1.28A64.52,64.52,0,0,0,268,235.34C258.26,233.7,251.05,234.74,248.24,236Z" style="fill:#f5f5f5"></path><path d="M246.17,232.22a4.49,4.49,0,0,0,1,2.8c1.67-.32,3.83-1,6.51-1.52,5-.9,20.19,1.54,28.65,2.82a4.73,4.73,0,0,0,.17-2.3,89.8,89.8,0,0,0-13.49-2.84C258.21,229.66,250,230.77,246.17,232.22Z" style="fill:#f5f5f5"></path><path d="M280.75,231.08a11.56,11.56,0,0,0-2.87-1.79c-2.41-.36-5.21-.72-8.32-1.06a110.89,110.89,0,0,0-20.64-.58,6.49,6.49,0,0,0-1.85,1.75c1.75,0,4.14-.4,7.27-.57C258.83,228.58,272.06,230.08,280.75,231.08Z" style="fill:#f5f5f5"></path><path d="M282.93,193.33c13.7-3.19,22.08,2.83,23.63-5.52s-13.66-8.36-27.16-6.44S267.26,197,282.93,193.33Z" style="fill:#ebebeb"></path><path d="M272.92,192.82a9.47,9.47,0,0,0,3.67,1.05c1-.42,2.11-.9,3.42-1.33,4.09-1.36,17.63-1.1,24.55-1a4.08,4.08,0,0,0,1.28-1.52,64.16,64.16,0,0,0-13.51-1.13C282.41,188.86,275.48,191.09,272.92,192.82Z" style="fill:#f5f5f5"></path><path d="M270.24,189.43a4.51,4.51,0,0,0,1.5,2.58c1.59-.6,3.6-1.66,6.16-2.59,4.73-1.71,20.16-1.86,28.71-2a4.65,4.65,0,0,0-.21-2.29,88.17,88.17,0,0,0-13.77-.54C281.69,184.88,273.81,187.35,270.24,189.43Z" style="fill:#f5f5f5"></path><path d="M304.15,182.5a12,12,0,0,0-3.14-1.27c-2.44.05-5.25.16-8.38.35a110.81,110.81,0,0,0-20.44,2.88,6.4,6.4,0,0,0-1.53,2c1.71-.32,4-1.08,7.06-1.78C282.12,183.72,295.4,183,304.15,182.5Z" style="fill:#f5f5f5"></path><path d="M308.84,163.36c-13.61-3.57-22.14,2.22-23.46-6.17s13.88-8,27.32-5.68S324.41,167.44,308.84,163.36Z" style="fill:#ebebeb"></path><path d="M318.87,163.13a9.43,9.43,0,0,1-3.71.94c-1-.44-2.08-.95-3.38-1.42-4-1.47-17.59-1.58-24.51-1.73a4.1,4.1,0,0,1-1.24-1.55,64.2,64.2,0,0,1,13.54-.76C309.48,158.91,316.35,161.33,318.87,163.13Z" style="fill:#f5f5f5"></path><path d="M321.64,159.81a4.52,4.52,0,0,1-1.58,2.54c-1.57-.64-3.54-1.76-6.08-2.76-4.68-1.84-20.1-2.42-28.65-2.81a4.73,4.73,0,0,1,.28-2.29,89.35,89.35,0,0,1,13.78-.15C310.32,155,318.12,157.64,321.64,159.81Z" style="fill:#f5f5f5"></path><path d="M287.93,152a12.34,12.34,0,0,1,3.17-1.19c2.44.12,5.25.31,8.37.58a110.81,110.81,0,0,1,20.35,3.45,6.57,6.57,0,0,1,1.48,2.07c-1.71-.37-4-1.19-7-2C309.92,153.78,296.66,152.67,287.93,152Z" style="fill:#f5f5f5"></path><path d="M346.31,170.43a1.6,1.6,0,0,0,1.21,1.41C347.67,170.82,347.27,170.35,346.31,170.43Z" style="fill:#f0f0f0"></path><path d="M358.57,148.36c-2.18,6.75-21.24,14.2-26.8,13.66a1.6,1.6,0,0,0,.79,1.68s9.13,5.19,19.22.87,8.11-15.84,8.11-15.84,1.7-3.69.43-4.88c-1.25-.32-1.65-.07-1.65-.07A11,11,0,0,1,358.57,148.36Z" style="fill:#fff"></path><path d="M360.32,143.85c-1.25-.32-1.65-.07-1.65-.07a11,11,0,0,1-.1,4.58c.15.5.73.45,1.32.37C359.89,148.73,361.59,145,360.32,143.85Z" style="fill:#f0f0f0"></path><path d="M333.18,163.06a3.64,3.64,0,0,1-1.05-.11.36.36,0,1,1,.24-.68c1.41.49,21.13-2.09,26.62-13.65a.36.36,0,0,1,.66.31C354.58,159.6,337.88,163.06,333.18,163.06Z" style="fill:#f0f0f0"></path><path d="M339.87,163.86a27.16,27.16,0,0,1-7.7-1,.24.24,0,1,1,.16-.46c1.9.66,11.08,2.47,18.19-1.45,4.36-2.39,7.24-6.5,8.56-12.21a.25.25,0,0,1,.29-.18.23.23,0,0,1,.18.29c-1.35,5.85-4.31,10.06-8.79,12.53A22.77,22.77,0,0,1,339.87,163.86Z" style="fill:#f0f0f0"></path><path d="M360.77,148.58c.84,7-13.38,21.76-18.66,23.58a1.6,1.6,0,0,0,1.42,1.21s10.46.91,17.84-7.23.76-17.78.76-17.78,0-4.05-1.63-4.61c-1.28.23-1.54.63-1.54.63A10.94,10.94,0,0,1,360.77,148.58Z" style="fill:#fff"></path><path d="M360.5,143.75c-1.28.23-1.54.63-1.54.63a10.78,10.78,0,0,1,1.81,4.2c.36.39.86.1,1.36-.22C362.13,148.36,362.14,144.31,360.5,143.75Z" style="fill:#f0f0f0"></path><path d="M342.8,172.87a.35.35,0,0,1-.36-.33.36.36,0,0,1,.32-.4c1.48-.14,18.34-10.7,18.51-23.5a.36.36,0,0,1,.36-.36h0a.37.37,0,0,1,.36.37c-.17,13-16.9,24-19.17,24.22Z" style="fill:#f0f0f0"></path><path d="M342.8,172.75a.25.25,0,0,1,0-.49c2-.19,11.1-2.37,15.93-8.9,3-4,3.86-8.93,2.69-14.66a.24.24,0,0,1,.19-.29.24.24,0,0,1,.28.19c1.2,5.88.27,10.94-2.77,15.05-4.94,6.67-14.24,8.9-16.28,9.1Z" style="fill:#f0f0f0"></path><path d="M362.37,148.49c2.7,6.56-7,24.56-11.63,27.73a1.6,1.6,0,0,0,1.69.78s10.32-1.94,15.24-11.76-4.05-17.33-4.05-17.33-1.09-3.91-2.82-4c-1.17.57-1.31,1-1.31,1A11,11,0,0,1,362.37,148.49Z" style="fill:#fff"></path><path d="M360.8,143.91c-1.17.57-1.31,1-1.31,1a11,11,0,0,1,2.88,3.56c.44.28.85-.14,1.25-.58C363.62,147.91,362.53,144,360.8,143.91Z" style="fill:#f0f0f0"></path><path d="M351.49,176.73a.38.38,0,0,1-.34-.23.37.37,0,0,1,.21-.47c1.39-.54,14.78-15.25,11.5-27.62a.36.36,0,0,1,.7-.18c3.35,12.6-9.81,27.66-11.94,28.48Z" style="fill:#f0f0f0"></path><path d="M351.49,176.61a.24.24,0,0,1-.08-.47c1.87-.72,10-5.27,12.95-12.86,1.77-4.64,1.31-9.64-1.36-14.85a.24.24,0,1,1,.43-.22c2.74,5.34,3.2,10.47,1.38,15.24-3,7.75-11.32,12.41-13.23,13.14Z" style="fill:#f0f0f0"></path><path d="M406.65,162.84c-2.73,6.54-22.35,12.38-27.84,11.38a1.6,1.6,0,0,0,.65,1.74s8.66,5.93,19.08,2.47,9.4-15.12,9.4-15.12,2-3.53.84-4.82c-1.22-.42-1.65-.21-1.65-.21A11,11,0,0,1,406.65,162.84Z" style="fill:#fff"></path><path d="M408.78,158.49c-1.22-.42-1.65-.21-1.65-.21a11,11,0,0,1-.48,4.56c.12.51.69.5,1.29.47C407.94,163.31,409.94,159.78,408.78,158.49Z" style="fill:#f0f0f0"></path><path d="M381.35,175.42a6.86,6.86,0,0,1-2.25-.24.36.36,0,0,1-.19-.48.37.37,0,0,1,.48-.18c1.36.6,21.23-.32,27.66-11.39a.37.37,0,0,1,.63.37C402.18,173,387.24,175.42,381.35,175.42Z" style="fill:#f0f0f0"></path><path d="M389.14,176.83a28.74,28.74,0,0,1-10-1.76.25.25,0,0,1-.12-.32.24.24,0,0,1,.32-.12c1.83.81,10.84,3.38,18.25.07,4.54-2,7.75-5.89,9.54-11.46a.25.25,0,0,1,.31-.16.25.25,0,0,1,.16.31c-1.84,5.71-5.14,9.66-9.81,11.75A21.19,21.19,0,0,1,389.14,176.83Z" style="fill:#f0f0f0"></path><path d="M367.71,186.33c-2.73,6.55-22.35,12.38-27.84,11.38a1.62,1.62,0,0,0,.65,1.75s8.66,5.93,19.08,2.46,9.4-15.11,9.4-15.11,2-3.53.84-4.82c-1.22-.43-1.65-.21-1.65-.21A11,11,0,0,1,367.71,186.33Z" style="fill:#fff"></path><path d="M369.84,182c-1.22-.43-1.65-.21-1.65-.21a11,11,0,0,1-.48,4.55c.12.52.69.51,1.29.48C369,186.81,371,183.28,369.84,182Z" style="fill:#f0f0f0"></path><path d="M342.41,198.92a7,7,0,0,1-2.26-.24.37.37,0,0,1-.18-.48.36.36,0,0,1,.48-.19c1.36.61,21.23-.32,27.66-11.38a.35.35,0,0,1,.5-.13.36.36,0,0,1,.13.49C363.24,196.46,348.3,198.92,342.41,198.92Z" style="fill:#f0f0f0"></path><path d="M350.2,200.32a28.81,28.81,0,0,1-10-1.75.25.25,0,0,1-.12-.32.25.25,0,0,1,.32-.13c1.83.82,10.84,3.39,18.25.07,4.54-2,7.75-5.88,9.54-11.45a.25.25,0,0,1,.31-.16.24.24,0,0,1,.16.3c-1.84,5.71-5.14,9.67-9.81,11.76A21.35,21.35,0,0,1,350.2,200.32Z" style="fill:#f0f0f0"></path><path d="M387.83,150.83c-2.73,6.55-22.35,12.38-27.84,11.38a1.6,1.6,0,0,0,.65,1.74s8.66,5.93,19.08,2.47,9.39-15.11,9.39-15.11,2-3.54.84-4.83c-1.22-.42-1.64-.21-1.64-.21A11,11,0,0,1,387.83,150.83Z" style="fill:#fff"></path><path d="M390,146.48c-1.22-.42-1.64-.2-1.64-.2a11,11,0,0,1-.48,4.55c.11.51.69.5,1.28.48C389.11,151.31,391.11,147.77,390,146.48Z" style="fill:#f0f0f0"></path><path d="M362.53,163.41a7,7,0,0,1-2.26-.24.36.36,0,0,1,.3-.66c1.36.6,21.23-.32,27.66-11.39a.36.36,0,0,1,.49-.13.37.37,0,0,1,.14.5C383.36,161,368.42,163.41,362.53,163.41Z" style="fill:#f0f0f0"></path><path d="M370.32,164.82a28.44,28.44,0,0,1-10-1.76.23.23,0,0,1-.12-.32.25.25,0,0,1,.32-.12c1.83.81,10.84,3.38,18.25.07,4.53-2,7.74-5.88,9.54-11.46a.24.24,0,0,1,.31-.15.24.24,0,0,1,.15.3c-1.84,5.71-5.14,9.67-9.8,11.75A21.19,21.19,0,0,1,370.32,164.82Z" style="fill:#f0f0f0"></path><path d="M396.67,193.77c-2.73,6.55-22.35,12.38-27.84,11.38a1.6,1.6,0,0,0,.65,1.74s8.66,5.93,19.08,2.47,9.4-15.12,9.4-15.12,2-3.53.84-4.82c-1.23-.42-1.65-.21-1.65-.21A11,11,0,0,1,396.67,193.77Z" style="fill:#fff"></path><path d="M398.8,189.42c-1.23-.42-1.65-.21-1.65-.21a11,11,0,0,1-.48,4.56c.11.51.69.5,1.29.47C398,194.24,400,190.71,398.8,189.42Z" style="fill:#f0f0f0"></path><path d="M371.37,206.35a7,7,0,0,1-2.26-.24.36.36,0,0,1,.3-.66c1.36.6,21.23-.32,27.66-11.39a.37.37,0,0,1,.63.37C392.2,203.89,377.26,206.35,371.37,206.35Z" style="fill:#f0f0f0"></path><path d="M379.16,207.76a28.44,28.44,0,0,1-10-1.76.24.24,0,0,1-.12-.32.25.25,0,0,1,.32-.12c1.83.81,10.84,3.38,18.25.07,4.54-2,7.75-5.88,9.54-11.46a.25.25,0,0,1,.47.15c-1.85,5.71-5.14,9.66-9.81,11.75A21.19,21.19,0,0,1,379.16,207.76Z" style="fill:#f0f0f0"></path><path d="M377.42,164.41c6.85,1.84,23.44-10.15,26-15.11a1.6,1.6,0,0,1,1,1.57s-.58,10.48-9.68,16.63S377,165.73,377,165.73s-4-.57-4.33-2.28c.41-1.23.84-1.43.84-1.43A10.92,10.92,0,0,0,377.42,164.41Z" style="fill:#fff"></path><path d="M372.68,163.45c.41-1.23.84-1.43.84-1.43a10.92,10.92,0,0,0,3.9,2.39c.34.41,0,.86-.41,1.32C377,165.73,373,165.16,372.68,163.45Z" style="fill:#f0f0f0"></path><path d="M379.37,165.77a15.84,15.84,0,0,1-2.06-.14.36.36,0,0,1-.31-.4.38.38,0,0,1,.41-.32c12.69,1.66,25.54-13.53,25.89-15a.36.36,0,0,1,.44-.27.36.36,0,0,1,.27.44C403.5,152.2,391.61,165.77,379.37,165.77Z" style="fill:#f0f0f0"></path><path d="M384.66,166.88a21.88,21.88,0,0,1-7.38-1.38.24.24,0,0,1-.15-.31.24.24,0,0,1,.31-.14c5.52,2,10.53,1.78,14.9-.58,7.15-3.85,10.61-12.56,11.08-14.51a.24.24,0,0,1,.29-.17.24.24,0,0,1,.18.29c-.48,2-4,10.88-11.32,14.82A16.46,16.46,0,0,1,384.66,166.88Z" style="fill:#f0f0f0"></path><path d="M337.69,193.68c6.85,1.84,23.44-10.15,26-15.11a1.6,1.6,0,0,1,1,1.57s-.58,10.48-9.68,16.63S337.28,195,337.28,195s-4-.57-4.33-2.28c.4-1.23.84-1.43.84-1.43A10.82,10.82,0,0,0,337.69,193.68Z" style="fill:#fff"></path><path d="M333,192.72c.4-1.23.84-1.43.84-1.43a10.82,10.82,0,0,0,3.9,2.39c.33.41,0,.86-.41,1.32C337.28,195,333.26,194.43,333,192.72Z" style="fill:#f0f0f0"></path><path d="M339.64,195a15.84,15.84,0,0,1-2.06-.14.35.35,0,0,1-.31-.4.38.38,0,0,1,.41-.32c12.69,1.65,25.54-13.53,25.89-15a.36.36,0,0,1,.44-.27.38.38,0,0,1,.27.44C363.77,181.47,351.88,195,339.64,195Z" style="fill:#f0f0f0"></path><path d="M344.93,196.15a21.88,21.88,0,0,1-7.38-1.38.24.24,0,0,1-.15-.31.24.24,0,0,1,.31-.14c5.51,2,10.53,1.78,14.9-.58,7.15-3.85,10.6-12.56,11.08-14.51a.23.23,0,0,1,.29-.17.24.24,0,0,1,.18.29c-.48,2-4,10.88-11.32,14.82A16.46,16.46,0,0,1,344.93,196.15Z" style="fill:#f0f0f0"></path><path d="M390.88,160.42c6,3.75,25.39-2.85,29.28-6.85a1.62,1.62,0,0,1,.49,1.8s-3.63,9.85-14.13,13.06-16.41-6.88-16.41-6.88-3.68-1.72-3.48-3.44c.75-1.06,1.22-1.13,1.22-1.13A11,11,0,0,0,390.88,160.42Z" style="fill:#fff"></path><path d="M386.63,158.11c.75-1.06,1.22-1.13,1.22-1.13a11,11,0,0,0,3,3.44c.2.49-.27.81-.77,1.13C390.11,161.55,386.43,159.83,386.63,158.11Z" style="fill:#f0f0f0"></path><path d="M398,163.08a18.25,18.25,0,0,1-7.62-1.53.36.36,0,0,1,.3-.66c11.66,5.3,28.39-5.46,29.15-6.74a.36.36,0,1,1,.62.37C419.57,156.09,408.51,163.08,398,163.08Z" style="fill:#f0f0f0"></path><path d="M402,165.64a19.16,19.16,0,0,1-11.54-4.22.24.24,0,1,1,.29-.39c4.69,3.5,9.54,4.78,14.41,3.81,8-1.59,13.82-8.9,14.84-10.63a.24.24,0,0,1,.33-.08.24.24,0,0,1,.09.33c-1.05,1.76-7,9.23-15.16,10.86A17.15,17.15,0,0,1,402,165.64Z" style="fill:#f0f0f0"></path><path d="M408.83,163.24c.25,7.09-15.15,20.57-20.55,21.95a1.58,1.58,0,0,0,1.31,1.31s10.35,1.78,18.37-5.71,2.24-17.65,2.24-17.65.35-4-1.24-4.74c-1.29.13-1.59.5-1.59.5A10.94,10.94,0,0,1,408.83,163.24Z" style="fill:#fff"></path><path d="M409,158.4c-1.29.13-1.59.5-1.59.5a10.94,10.94,0,0,1,1.46,4.34c.32.42.85.17,1.37-.1C410.2,163.14,410.55,159.09,409,158.4Z" style="fill:#f0f0f0"></path><path d="M388.93,186a.37.37,0,0,1,0-.73c1.48,0,19.16-9.14,20.39-21.88a.37.37,0,0,1,.4-.33.38.38,0,0,1,.33.4c-1.26,13-18.84,22.51-21.12,22.54Z" style="fill:#f0f0f0"></path><path d="M388.93,185.83a.25.25,0,0,1,0-.49c2,0,11.26-1.44,16.61-7.54,3.28-3.74,4.59-8.58,3.9-14.39a.24.24,0,1,1,.48-.06c.71,6-.64,10.93-4,14.77-5.47,6.23-14.93,7.68-17,7.71Z" style="fill:#f0f0f0"></path><path d="M410.43,163.28c2.15,6.76-9.06,23.89-13.89,26.67a1.6,1.6,0,0,0,1.62.92s10.44-1.08,16.16-10.45-2.6-17.61-2.6-17.61-.76-4-2.48-4.22c-1.2.46-1.39.9-1.39.9A11,11,0,0,1,410.43,163.28Z" style="fill:#fff"></path><path d="M409.24,158.59c-1.2.46-1.39.9-1.39.9a11,11,0,0,1,2.58,3.79c.42.32.85-.06,1.29-.47C411.72,162.81,411,158.83,409.24,158.59Z" style="fill:#f0f0f0"></path><path d="M397.27,190.52a.35.35,0,0,1-.34-.26.36.36,0,0,1,.24-.45c1.43-.42,16-14,13.76-26.56a.36.36,0,1,1,.71-.13c2.29,12.84-12.08,26.75-14.26,27.39Z" style="fill:#f0f0f0"></path><path d="M397.27,190.4a.25.25,0,0,1-.23-.17.24.24,0,0,1,.17-.3c1.92-.57,10.45-4.43,14-11.74,2.15-4.48,2.11-9.5-.12-14.92a.24.24,0,0,1,.13-.31.25.25,0,0,1,.32.13c2.28,5.55,2.32,10.7.11,15.31-3.59,7.47-12.31,11.42-14.28,12Z" style="fill:#f0f0f0"></path><path d="M384.89,180.25C387,187,375.83,204.14,371,206.93a1.6,1.6,0,0,0,1.62.91s10.44-1.07,16.15-10.45-2.59-17.6-2.59-17.6-.76-4-2.48-4.23c-1.2.47-1.39.91-1.39.91A11,11,0,0,1,384.89,180.25Z" style="fill:#fff"></path><path d="M383.7,175.56c-1.2.47-1.39.91-1.39.91a11,11,0,0,1,2.58,3.78c.42.32.85-.06,1.29-.46C386.18,179.79,385.42,175.8,383.7,175.56Z" style="fill:#f0f0f0"></path><path d="M371.73,207.5a.38.38,0,0,1-.35-.26.38.38,0,0,1,.25-.46c1.43-.41,16-14,13.75-26.56a.37.37,0,0,1,.3-.42.36.36,0,0,1,.42.29c2.28,12.84-12.08,26.75-14.27,27.39Z" style="fill:#f0f0f0"></path><path d="M371.73,207.38a.25.25,0,0,1-.07-.48c1.93-.56,10.46-4.42,14-11.74,2.15-4.48,2.11-9.49-.12-14.91a.24.24,0,0,1,.13-.32.25.25,0,0,1,.32.14c2.28,5.54,2.32,10.69.1,15.3-3.59,7.48-12.3,11.42-14.27,12Z" style="fill:#f0f0f0"></path><path d="M330.31,212.15c-2.17,6.76-21.24,14.2-26.79,13.66a1.6,1.6,0,0,0,.79,1.68s9.12,5.19,19.22.87,8.11-15.84,8.11-15.84,1.7-3.68.43-4.87c-1.25-.33-1.66-.07-1.66-.07A10.78,10.78,0,0,1,330.31,212.15Z" style="fill:#fff"></path><path d="M332.07,207.65c-1.25-.33-1.66-.07-1.66-.07a10.78,10.78,0,0,1-.1,4.57c.16.51.74.45,1.33.37C331.64,212.52,333.34,208.84,332.07,207.65Z" style="fill:#f0f0f0"></path><path d="M304.93,226.86a3.59,3.59,0,0,1-1.05-.11.37.37,0,0,1-.22-.47.36.36,0,0,1,.46-.22c1.4.49,21.13-2.08,26.62-13.65a.36.36,0,0,1,.48-.17.38.38,0,0,1,.18.49C326.33,223.4,309.63,226.86,304.93,226.86Z" style="fill:#f0f0f0"></path><path d="M311.62,227.65a27.16,27.16,0,0,1-7.7-1,.24.24,0,1,1,.16-.45c1.89.65,11.08,2.47,18.19-1.45,4.35-2.4,7.23-6.51,8.56-12.21a.24.24,0,1,1,.47.11c-1.36,5.84-4.32,10.05-8.79,12.52A22.68,22.68,0,0,1,311.62,227.65Z" style="fill:#f0f0f0"></path><path d="M332.52,212.37c.84,7-13.38,21.76-18.66,23.59a1.6,1.6,0,0,0,1.42,1.2s10.46.91,17.84-7.22.76-17.78.76-17.78,0-4.06-1.64-4.62c-1.27.23-1.53.63-1.53.63A11,11,0,0,1,332.52,212.37Z" style="fill:#fff"></path><path d="M332.24,207.54c-1.27.23-1.53.63-1.53.63a11,11,0,0,1,1.81,4.2c.36.4.86.1,1.36-.21C333.88,212.16,333.89,208.1,332.24,207.54Z" style="fill:#f0f0f0"></path><path d="M314.55,236.66a.37.37,0,0,1-.37-.33.36.36,0,0,1,.33-.39c1.48-.15,18.34-10.71,18.51-23.5a.33.33,0,0,1,.37-.36.36.36,0,0,1,.36.36c-.18,13-16.9,24-19.17,24.22Z" style="fill:#f0f0f0"></path><path d="M314.55,236.54a.23.23,0,0,1-.24-.22.23.23,0,0,1,.21-.26c2-.19,11.11-2.38,15.94-8.9,3-4,3.86-8.93,2.68-14.67a.25.25,0,0,1,.48-.1c1.2,5.88.27,10.94-2.77,15.05-4.94,6.67-14.24,8.9-16.28,9.1Z" style="fill:#f0f0f0"></path><path d="M334.12,212.28c2.7,6.56-7,24.56-11.63,27.74a1.6,1.6,0,0,0,1.69.77s10.32-1.93,15.23-11.75-4.05-17.33-4.05-17.33-1.08-3.91-2.81-4c-1.17.57-1.32,1-1.32,1A11,11,0,0,1,334.12,212.28Z" style="fill:#fff"></path><path d="M332.55,207.7c-1.17.57-1.32,1-1.32,1a11,11,0,0,1,2.89,3.56c.44.28.84-.13,1.24-.57C335.36,211.71,334.28,207.8,332.55,207.7Z" style="fill:#f0f0f0"></path><path d="M323.24,240.52a.36.36,0,0,1-.13-.7c1.39-.53,14.78-15.24,11.5-27.61a.36.36,0,1,1,.7-.19c3.35,12.6-9.81,27.66-11.94,28.48A.27.27,0,0,1,323.24,240.52Z" style="fill:#f0f0f0"></path><path d="M323.24,240.4a.23.23,0,0,1-.22-.15.25.25,0,0,1,.13-.32c1.88-.72,10.06-5.27,13-12.86,1.78-4.64,1.32-9.64-1.36-14.85a.24.24,0,0,1,.11-.32.25.25,0,0,1,.33.1c2.73,5.34,3.2,10.47,1.38,15.25-3,7.75-11.32,12.4-13.23,13.14Z" style="fill:#f0f0f0"></path><path d="M378.4,226.63c-2.73,6.55-22.35,12.38-27.84,11.38a1.6,1.6,0,0,0,.65,1.74s8.66,5.93,19.08,2.47,9.4-15.11,9.4-15.11,2-3.53.84-4.83c-1.23-.42-1.65-.2-1.65-.2A11,11,0,0,1,378.4,226.63Z" style="fill:#fff"></path><path d="M380.53,222.28c-1.23-.42-1.65-.2-1.65-.2a11,11,0,0,1-.48,4.55c.11.51.69.5,1.29.48C379.69,227.11,381.69,223.58,380.53,222.28Z" style="fill:#f0f0f0"></path><path d="M353.1,239.21a7.38,7.38,0,0,1-2.26-.23.37.37,0,0,1-.18-.48.36.36,0,0,1,.48-.19c1.36.6,21.23-.32,27.66-11.39a.37.37,0,0,1,.63.37C373.93,236.75,359,239.21,353.1,239.21Z" style="fill:#f0f0f0"></path><path d="M360.89,240.62a28.44,28.44,0,0,1-10-1.76.24.24,0,0,1-.12-.32.25.25,0,0,1,.32-.12c1.83.81,10.84,3.39,18.25.07,4.54-2,7.75-5.88,9.54-11.46a.25.25,0,0,1,.31-.15.24.24,0,0,1,.16.3c-1.85,5.71-5.15,9.67-9.81,11.75A21.19,21.19,0,0,1,360.89,240.62Z" style="fill:#f0f0f0"></path><path d="M359.57,214.62c-2.72,6.55-22.34,12.38-27.83,11.38a1.61,1.61,0,0,0,.65,1.75s8.66,5.93,19.08,2.46,9.39-15.11,9.39-15.11,2-3.53.84-4.82c-1.22-.43-1.64-.21-1.64-.21A10.85,10.85,0,0,1,359.57,214.62Z" style="fill:#fff"></path><path d="M361.7,210.28c-1.22-.43-1.64-.21-1.64-.21a10.85,10.85,0,0,1-.49,4.55c.12.52.7.51,1.29.48C360.86,215.1,362.86,211.57,361.7,210.28Z" style="fill:#f0f0f0"></path><path d="M334.28,227.21A6.93,6.93,0,0,1,332,227a.37.37,0,0,1,.3-.67c1.35.61,21.23-.32,27.66-11.38a.36.36,0,1,1,.62.36C355.11,224.74,340.17,227.21,334.28,227.21Z" style="fill:#f0f0f0"></path><path d="M342.07,228.61a28.75,28.75,0,0,1-10-1.75.25.25,0,0,1,.2-.45c1.83.82,10.84,3.39,18.25.07,4.53-2,7.74-5.88,9.54-11.45a.24.24,0,0,1,.46.14c-1.84,5.71-5.14,9.67-9.81,11.76A21.3,21.3,0,0,1,342.07,228.61Z" style="fill:#f0f0f0"></path><path d="M396.17,206.08c-2.73,6.55-22.35,12.38-27.84,11.38a1.6,1.6,0,0,0,.65,1.74s8.66,5.93,19.08,2.47,9.39-15.11,9.39-15.11,2-3.54.84-4.83c-1.22-.42-1.64-.2-1.64-.2A11,11,0,0,1,396.17,206.08Z" style="fill:#fff"></path><path d="M398.29,201.73c-1.22-.42-1.64-.2-1.64-.2a11,11,0,0,1-.48,4.55c.11.51.69.5,1.28.48C397.45,206.56,399.45,203,398.29,201.73Z" style="fill:#f0f0f0"></path><path d="M370.87,218.66a7,7,0,0,1-2.26-.24.36.36,0,0,1-.18-.48.36.36,0,0,1,.48-.18c1.36.6,21.23-.32,27.66-11.39a.36.36,0,0,1,.49-.13.37.37,0,0,1,.14.5C391.7,216.2,376.76,218.66,370.87,218.66Z" style="fill:#f0f0f0"></path><path d="M378.66,220.07a28.44,28.44,0,0,1-10-1.76.23.23,0,0,1-.12-.32.25.25,0,0,1,.32-.12c1.83.81,10.84,3.38,18.25.07,4.53-2,7.74-5.88,9.54-11.46a.24.24,0,0,1,.31-.15.24.24,0,0,1,.15.3c-1.84,5.71-5.14,9.67-9.8,11.75A21.19,21.19,0,0,1,378.66,220.07Z" style="fill:#f0f0f0"></path><path d="M349.17,228.21c6.85,1.83,23.44-10.16,26-15.12a1.61,1.61,0,0,1,1,1.58s-.58,10.48-9.68,16.62-17.71-1.77-17.71-1.77-4-.57-4.33-2.28c.41-1.22.84-1.43.84-1.43A10.93,10.93,0,0,0,349.17,228.21Z" style="fill:#fff"></path><path d="M344.43,227.24c.41-1.22.84-1.43.84-1.43a11,11,0,0,0,3.9,2.4c.34.4,0,.86-.41,1.31C348.76,229.52,344.74,229,344.43,227.24Z" style="fill:#f0f0f0"></path><path d="M351.12,229.56a15.83,15.83,0,0,1-2.06-.13.36.36,0,0,1,.1-.72c12.69,1.65,25.54-13.54,25.89-15a.36.36,0,0,1,.44-.27.38.38,0,0,1,.27.44C375.25,216,363.36,229.56,351.12,229.56Z" style="fill:#f0f0f0"></path><path d="M356.41,230.68A21.88,21.88,0,0,1,349,229.3a.25.25,0,0,1-.15-.31.24.24,0,0,1,.31-.15c5.52,2,10.53,1.78,14.9-.58,7.15-3.85,10.61-12.55,11.08-14.5a.24.24,0,0,1,.47.11c-.48,2-4,10.88-11.32,14.82A16.47,16.47,0,0,1,356.41,230.68Z" style="fill:#f0f0f0"></path><path d="M336.42,215.29c6.86,1.83,23.45-10.15,26-15.11a1.6,1.6,0,0,1,1,1.57s-.58,10.48-9.68,16.63S336,216.61,336,216.61s-4-.57-4.34-2.28c.41-1.23.84-1.43.84-1.43A10.92,10.92,0,0,0,336.42,215.29Z" style="fill:#fff"></path><path d="M331.68,214.33c.41-1.23.84-1.43.84-1.43a10.92,10.92,0,0,0,3.9,2.39c.34.41,0,.86-.4,1.32C336,216.61,332,216,331.68,214.33Z" style="fill:#f0f0f0"></path><path d="M338.37,216.64a15.79,15.79,0,0,1-2.05-.13.35.35,0,0,1-.31-.4.37.37,0,0,1,.4-.32c12.7,1.65,25.55-13.53,25.9-15a.36.36,0,0,1,.44-.27.37.37,0,0,1,.27.44C362.51,203.08,350.61,216.64,338.37,216.64Z" style="fill:#f0f0f0"></path><path d="M343.66,217.76a21.83,21.83,0,0,1-7.37-1.38.23.23,0,0,1-.15-.31.25.25,0,0,1,.31-.15c5.51,2,10.53,1.79,14.9-.57,7.15-3.85,10.6-12.56,11.08-14.51a.23.23,0,0,1,.29-.17.24.24,0,0,1,.18.29c-.49,2-4,10.88-11.32,14.82A16.47,16.47,0,0,1,343.66,217.76Z" style="fill:#f0f0f0"></path><path d="M380.58,227c.25,7.09-15.15,20.57-20.56,21.95a1.62,1.62,0,0,0,1.32,1.32s10.34,1.78,18.37-5.71S382,226.93,382,226.93s.35-4-1.25-4.73c-1.28.12-1.58.49-1.58.49A10.94,10.94,0,0,1,380.58,227Z" style="fill:#fff"></path><path d="M380.7,222.2c-1.28.12-1.58.49-1.58.49a10.94,10.94,0,0,1,1.46,4.34c.32.42.84.17,1.37-.1C382,226.93,382.3,222.89,380.7,222.2Z" style="fill:#f0f0f0"></path><path d="M360.68,249.74a.37.37,0,0,1-.37-.36.36.36,0,0,1,.36-.36c1.49,0,19.17-9.15,20.4-21.89a.36.36,0,0,1,.4-.32.35.35,0,0,1,.32.39c-1.25,13-18.83,22.52-21.11,22.54Z" style="fill:#f0f0f0"></path><path d="M360.68,249.62a.24.24,0,0,1-.24-.24.23.23,0,0,1,.24-.24c2,0,11.26-1.45,16.61-7.55,3.28-3.73,4.59-8.58,3.9-14.39a.25.25,0,0,1,.21-.27.24.24,0,0,1,.27.21c.71,6-.64,10.93-4,14.77-5.47,6.24-14.93,7.69-17,7.71Z" style="fill:#f0f0f0"></path><path d="M382.18,227.07c2.14,6.76-9.06,23.89-13.89,26.68a1.6,1.6,0,0,0,1.62.91s10.44-1.07,16.15-10.45-2.59-17.61-2.59-17.61-.76-4-2.48-4.22c-1.2.47-1.39.91-1.39.91A11,11,0,0,1,382.18,227.07Z" style="fill:#fff"></path><path d="M381,222.38c-1.2.47-1.39.91-1.39.91a11,11,0,0,1,2.58,3.78c.42.32.85-.06,1.29-.47C383.47,226.6,382.71,222.62,381,222.38Z" style="fill:#f0f0f0"></path><path d="M369,254.32a.38.38,0,0,1-.35-.27.37.37,0,0,1,.25-.45c1.43-.42,16-14,13.75-26.56a.36.36,0,0,1,.3-.42.36.36,0,0,1,.42.29c2.28,12.84-12.08,26.75-14.26,27.39Z" style="fill:#f0f0f0"></path><path d="M369,254.19a.23.23,0,0,1-.23-.17.24.24,0,0,1,.17-.3c1.92-.56,10.45-4.42,14-11.74,2.15-4.48,2.11-9.5-.12-14.91a.25.25,0,0,1,.13-.32.25.25,0,0,1,.32.13c2.28,5.55,2.32,10.7.11,15.31-3.6,7.48-12.31,11.42-14.28,12Z" style="fill:#f0f0f0"></path><path d="M326.56,236.53c-2.73,6.55-22.35,12.38-27.84,11.38a1.61,1.61,0,0,0,.65,1.75s8.66,5.93,19.08,2.46,9.4-15.11,9.4-15.11,2-3.53.84-4.82c-1.22-.43-1.65-.21-1.65-.21A11,11,0,0,1,326.56,236.53Z" style="fill:#fff"></path><path d="M328.69,232.19c-1.22-.43-1.65-.21-1.65-.21a11,11,0,0,1-.48,4.55c.12.52.7.51,1.29.48C327.85,237,329.85,233.48,328.69,232.19Z" style="fill:#f0f0f0"></path><path d="M301.26,249.12a6.9,6.9,0,0,1-2.25-.24.36.36,0,0,1-.19-.48.37.37,0,0,1,.48-.19c1.36.61,21.23-.32,27.66-11.38a.36.36,0,0,1,.63.36C322.09,246.66,307.15,249.12,301.26,249.12Z" style="fill:#f0f0f0"></path><path d="M309.05,250.52a28.81,28.81,0,0,1-10-1.75.25.25,0,0,1-.12-.32.25.25,0,0,1,.32-.13c1.83.82,10.84,3.39,18.25.07,4.54-2,7.75-5.88,9.55-11.45a.24.24,0,0,1,.3-.16.25.25,0,0,1,.16.31c-1.84,5.71-5.14,9.66-9.81,11.75A21.35,21.35,0,0,1,309.05,250.52Z" style="fill:#f0f0f0"></path><path d="M323.82,223.91c-1.72,6.89-20.25,15.59-25.82,15.42a1.61,1.61,0,0,0,.9,1.63s9.45,4.57,19.23-.42,7-16.35,7-16.35,1.45-3.79.11-4.89c-1.27-.24-1.66,0-1.66,0A10.94,10.94,0,0,1,323.82,223.91Z" style="fill:#fff"></path><path d="M325.27,219.3c-1.27-.24-1.66,0-1.66,0a10.94,10.94,0,0,1,.21,4.57c.19.5.76.4,1.34.28C325.16,224.19,326.61,220.4,325.27,219.3Z" style="fill:#f0f0f0"></path><path d="M299,240.3a2.14,2.14,0,0,1-.58-.06.36.36,0,0,1-.26-.45.37.37,0,0,1,.45-.25c1.43.39,20.94-3.49,25.65-15.39a.36.36,0,0,1,.47-.21.38.38,0,0,1,.21.48C320.43,235.81,302.92,240.3,299,240.3Z" style="fill:#f0f0f0"></path><path d="M304.11,240.69a24.33,24.33,0,0,1-5.66-.57.23.23,0,0,1-.17-.29.24.24,0,0,1,.3-.17c1.93.53,11.22,1.72,18.05-2.66,4.19-2.69,6.78-7,7.73-12.76a.24.24,0,0,1,.28-.2.25.25,0,0,1,.2.28c-1,5.92-3.64,10.32-7.94,13.09C312.82,240,307.9,240.69,304.11,240.69Z" style="fill:#f0f0f0"></path><path d="M332.1,236.92c3.09,6.38,23,11.1,28.43,9.8a1.59,1.59,0,0,1-.55,1.77s-8.31,6.41-18.91,3.54-10.23-14.56-10.23-14.56-2.2-3.41-1.11-4.77c1.19-.49,1.63-.3,1.63-.3A10.91,10.91,0,0,0,332.1,236.92Z" style="fill:#fff"></path><path d="M329.73,232.7c1.19-.49,1.63-.3,1.63-.3a10.91,10.91,0,0,0,.74,4.52c-.09.52-.67.54-1.26.55C330.84,237.47,328.64,234.06,329.73,232.7Z" style="fill:#f0f0f0"></path><path d="M356.56,248.1c-6.63,0-19.89-2-25.45-10.46a.37.37,0,0,1,.1-.51.36.36,0,0,1,.5.11c7.05,10.68,26.94,10.49,28.26,9.81a.36.36,0,0,1,.33.65A11.33,11.33,0,0,1,356.56,248.1Z" style="fill:#f0f0f0"></path><path d="M348.88,250a20.44,20.44,0,0,1-7.24-1.24c-4.78-1.83-8.3-5.59-10.46-11.19a.25.25,0,0,1,.14-.31.24.24,0,0,1,.32.14c2.1,5.46,5.53,9.13,10.17,10.9,7.58,2.89,16.43-.18,18.22-1.09a.23.23,0,0,1,.32.1.24.24,0,0,1-.1.33A29,29,0,0,1,348.88,250Z" style="fill:#f0f0f0"></path><path d="M355.09,171.49c-2.73,6.55-22.34,12.39-27.83,11.39a1.6,1.6,0,0,0,.64,1.74s8.66,5.93,19.08,2.47,9.4-15.12,9.4-15.12,2-3.53.84-4.82c-1.22-.43-1.65-.21-1.65-.21A11,11,0,0,1,355.09,171.49Z" style="fill:#fff"></path><path d="M357.22,167.15c-1.22-.43-1.65-.21-1.65-.21a11,11,0,0,1-.48,4.55c.12.52.7.51,1.29.48C356.38,172,358.38,168.44,357.22,167.15Z" style="fill:#f0f0f0"></path><path d="M329.79,184.08a6.9,6.9,0,0,1-2.25-.24.36.36,0,0,1-.19-.48.36.36,0,0,1,.48-.18c1.36.6,21.23-.33,27.66-11.39a.37.37,0,0,1,.63.37C350.62,181.62,335.68,184.08,329.79,184.08Z" style="fill:#f0f0f0"></path><path d="M337.59,185.48a28.7,28.7,0,0,1-10-1.75.24.24,0,1,1,.19-.44c1.84.81,10.84,3.38,18.25.07,4.54-2,7.75-5.89,9.55-11.46a.24.24,0,0,1,.3-.16.25.25,0,0,1,.16.31c-1.84,5.71-5.14,9.66-9.81,11.75A21.13,21.13,0,0,1,337.59,185.48Z" style="fill:#f0f0f0"></path><path d="M344.68,185.08c6.86,1.83,23.45-10.16,26-15.12a1.62,1.62,0,0,1,1,1.58S371.09,182,362,188.16s-17.71-1.77-17.71-1.77-4-.57-4.34-2.27c.41-1.23.84-1.44.84-1.44A10.89,10.89,0,0,0,344.68,185.08Z" style="fill:#fff"></path><path d="M339.94,184.12c.41-1.23.84-1.43.84-1.43a10.92,10.92,0,0,0,3.9,2.39c.34.41,0,.86-.4,1.31C344.28,186.39,340.26,185.82,339.94,184.12Z" style="fill:#f0f0f0"></path><path d="M346.63,186.43a15.79,15.79,0,0,1-2.05-.13.36.36,0,0,1-.31-.41.35.35,0,0,1,.4-.31c12.7,1.65,25.55-13.53,25.9-15a.37.37,0,0,1,.44-.27.37.37,0,0,1,.26.44C370.77,172.87,358.87,186.43,346.63,186.43Z" style="fill:#f0f0f0"></path><path d="M351.92,187.55a21.83,21.83,0,0,1-7.37-1.38.24.24,0,0,1,.16-.46c5.51,2,10.52,1.78,14.9-.57,7.14-3.85,10.6-12.56,11.07-14.51a.26.26,0,0,1,.3-.18.24.24,0,0,1,.18.29c-.49,2-4,10.89-11.32,14.82A16.39,16.39,0,0,1,351.92,187.55Z" style="fill:#f0f0f0"></path><path d="M376.1,183.91c.25,7.09-15.15,20.57-20.56,21.94a1.61,1.61,0,0,0,1.32,1.32s10.34,1.78,18.37-5.71,2.24-17.66,2.24-17.66.34-4-1.25-4.73c-1.29.12-1.58.5-1.58.5A10.94,10.94,0,0,1,376.1,183.91Z" style="fill:#fff"></path><path d="M376.22,179.07c-1.29.12-1.58.5-1.58.5a10.94,10.94,0,0,1,1.46,4.34c.32.42.84.17,1.37-.11C377.47,183.8,377.81,179.76,376.22,179.07Z" style="fill:#f0f0f0"></path><path d="M356.2,206.62a.37.37,0,0,1,0-.73c1.49,0,19.16-9.14,20.4-21.88a.36.36,0,0,1,.39-.33.37.37,0,0,1,.33.4c-1.26,13-18.83,22.51-21.11,22.54Z" style="fill:#f0f0f0"></path><path d="M356.2,206.49a.24.24,0,0,1-.25-.24.24.24,0,0,1,.24-.24c2,0,11.27-1.44,16.62-7.55,3.28-3.73,4.59-8.57,3.9-14.39a.24.24,0,0,1,.21-.27.25.25,0,0,1,.27.21c.71,6-.64,10.93-4,14.77-5.47,6.24-14.92,7.69-17,7.71Z" style="fill:#f0f0f0"></path><path d="M327.61,193.79c3.1,6.39,23,11.11,28.44,9.8a1.63,1.63,0,0,1-.55,1.78s-8.32,6.4-18.91,3.53-10.23-14.56-10.23-14.56-2.2-3.41-1.11-4.77c1.19-.49,1.63-.3,1.63-.3A11,11,0,0,0,327.61,193.79Z" style="fill:#fff"></path><path d="M325.25,189.57c1.19-.49,1.63-.3,1.63-.3a11,11,0,0,0,.73,4.52c-.08.52-.66.55-1.25.55C326.36,194.34,324.16,190.93,325.25,189.57Z" style="fill:#f0f0f0"></path><path d="M352.08,205c-6.63,0-19.89-2-25.46-10.46a.36.36,0,0,1,.61-.4c7,10.69,26.93,10.49,28.26,9.81a.36.36,0,1,1,.33.65A11.37,11.37,0,0,1,352.08,205Z" style="fill:#f0f0f0"></path><path d="M344.4,206.82a20.49,20.49,0,0,1-7.25-1.24c-4.77-1.82-8.29-5.59-10.45-11.18a.24.24,0,0,1,.14-.32.25.25,0,0,1,.31.14c2.11,5.47,5.53,9.13,10.18,10.91,7.58,2.89,16.43-.18,18.21-1.1a.24.24,0,0,1,.33.1.25.25,0,0,1-.1.33A29,29,0,0,1,344.4,206.82Z" style="fill:#f0f0f0"></path></g><g id="freepik--Shadow--inject-35"><ellipse id="freepik--path--inject-35" cx="250" cy="416.24" rx="193.89" ry="11.32" style="fill:#f5f5f5"></ellipse></g><g id="freepik--character-1--inject-35"><path d="M169.52,131.83c3.34-8.8,4.45-21.24-10.7-20v0c-12.75-7.47-26.62,3.48-22.58,14.63,1.79,4.92,3.69,7.74-1.06,13.05s3.92,6.37,1.06,10.93c-4.56,7.3,2.35,15.7,15.72,11.55,8.56-2.66,20.46,2.16,21.51-6.49S167.09,138.25,169.52,131.83Z" style="fill:#263238"></path><path d="M139.11,416.23c-7.31,0-6.78-.11-10.89-.25-3.51-.13-4.35.31-7.18.25-2.36-.05-2.27-2.31-1.54-4.91.36-1.31.92-2.9,1.43-5H132a11.08,11.08,0,0,0,8.63,5.59C144.59,412.42,142,416.23,139.11,416.23Z" style="fill:#407BFF"></path><path d="M199.37,416.23c-7.18,0-9.6-.47-13.64-.61-3.47-.13-4,.61-7.51.61-2.33,0-2.77-2.62-2-4.58a31.39,31.39,0,0,0,2-5.34h9.9c1.94,3.14,6.92,5.46,12.38,5.85C204.41,412.45,202.25,416.23,199.37,416.23Z" style="fill:#407BFF"></path><path d="M181.81,220.42s3.85,51.69,2.32,84.51c1.64,30.81,4,101.38,4,101.38-.16,1.57-8.46.94-9.9,0,0,0-17.89-51.4-13.35-101.38-19.64-52.13-17.45-84.51-17.45-84.51Z" style="fill:#263238"></path><path d="M171.5,220.42s-16.8,58.34-23.61,87c-7.15,30.08-17,78.91-15.86,98.9-1.71,1-7.73,1.05-11.1,0,0,0-11.3-68.61,6-97.57-3.91-71.27,15.43-88.32,15.43-88.32Z" style="fill:#263238"></path><path d="M132.87,402.15a28.51,28.51,0,0,0,.38,4.1.85.85,0,0,1-.71,1c-4.07.65-9.95-.29-11.81-.63a.85.85,0,0,1-.69-.7l-.61-3.84a.86.86,0,0,1,.86-1l11.74.22A.86.86,0,0,1,132.87,402.15Z" style="fill:#263238"></path><path d="M132.87,402.15a28.51,28.51,0,0,0,.38,4.1.85.85,0,0,1-.71,1c-4.07.65-9.95-.29-11.81-.63a.85.85,0,0,1-.69-.7l-.61-3.84a.86.86,0,0,1,.86-1l11.74.22A.86.86,0,0,1,132.87,402.15Z" style="fill:#fff;opacity:0.1"></path><path d="M189.05,402c.08,1.07.23,3,.4,4.39a.84.84,0,0,1-.74.94,58.14,58.14,0,0,1-10.93-.12.83.83,0,0,1-.75-.65l-.92-3.84a.86.86,0,0,1,.8-1.05l11.26-.45A.84.84,0,0,1,189.05,402Z" style="fill:#263238"></path><path d="M189.05,402c.08,1.07.23,3,.4,4.39a.84.84,0,0,1-.74.94,58.14,58.14,0,0,1-10.93-.12.83.83,0,0,1-.75-.65l-.92-3.84a.86.86,0,0,1,.8-1.05l11.26-.45A.84.84,0,0,1,189.05,402Z" style="fill:#fff;opacity:0.1"></path><path d="M180.49,167.76l6.31,10,6.32,10,3.18,5,1.6,2.5a18.66,18.66,0,0,1,1.88,3.57,13,13,0,0,1,.94,5.25,11.36,11.36,0,0,1-.49,2.89,10.45,10.45,0,0,1-1.21,2.54,11,11,0,0,1-3.46,3.35,12.32,12.32,0,0,1-1.89.94c-.32.13-.64.24-1,.34l-1.11.3a3.46,3.46,0,0,1-2.84-6.3c0-.07.14-.26.22-.41s.21-.3.3-.46a6.54,6.54,0,0,0,.48-.89,2.24,2.24,0,0,0,.24-1.37.61.61,0,0,0-.47-.39c-.19,0-.34-.22-.64-.5a9.18,9.18,0,0,1-1.33-1.51l-1.88-2.41c-1.24-1.61-2.44-3.26-3.65-4.9s-2.38-3.29-3.54-5-2.32-3.34-3.44-5c-2.26-3.4-4.42-6.78-6.5-10.39a7,7,0,0,1,11.93-7.23Z" style="fill:#7f3e3b"></path><path d="M172.5,160.2c7.28,1.37,11.14,7.55,18.31,20.45-1.66,4.82-13,9.42-13,9.42S160.49,169.6,172.5,160.2Z" style="fill:#407BFF"></path><path d="M184,174a177.27,177.27,0,0,1-.26,18.05c-.3,7.84-.84,15.55-2,28.4H142.35c.8-11.11-.5-23.78-7.58-48.78a9.2,9.2,0,0,1,7.87-12c1.56-.16,3.22-.29,4.92-.38a125.83,125.83,0,0,1,17.91,0c1.95.18,4,.42,5.9.69A14.85,14.85,0,0,1,184,174Z" style="fill:#407BFF"></path><path d="M126.83,307c7.36-.28,14.67-.81,21.5-1.45,1.5-6.16,3.38-13.52,5.45-21.3l-27.25-2C126.3,289.64,126.37,297.87,126.83,307Z"></path><path d="M158,284.57q2.73,9.06,6.49,19.22c9.94-1.27,17.31-2.5,19.86-2.94.14-4.53.2-9.36.19-14.29Z"></path><path d="M184.16,221.28c.47-10.47,0-29.83,0-29.83s-1.08-24.7-9-30.74a.7.7,0,0,0-.24-.13c-1.31-.4-2.4-.81-2.83-.48s6.57,5.79,7.19,20.73c-12.87,1.15-30.39-.47-30.39-.47s.12-14.17-2.82-21a.62.62,0,0,0-.67-.36l-1.69.25a.63.63,0,0,0-.42,1c3.17,5.42,1.21,25.6-3.83,33.81.42,4.81,1.15,25,1.15,25s-18.31,21.45-16.85,74.62c22.61,11.93,62.59,3.14,62.59,3.14S183.69,231.74,184.16,221.28Z" style="fill:#263238"></path><path d="M148.82,139.13c1.56,5.76,3.47,16.33-.28,20.17,0,0,5.46-.82,17.06,6.35,3.35-4.81.86-6.35.86-6.35-6.54-1.53-6.73-6.3-6-10.78Z" style="fill:#7f3e3b"></path><path d="M163.16,164.21c-3.82.54-5,6.31-5,6.31S149,164,146.07,159.46a39.43,39.43,0,0,0,3.35-2.13S160.93,162,163.16,164.21Z" style="fill:#fff"></path><path d="M166.79,163.59s3.3.89,4.49,5.53c.87-8.4-3.05-9.83-3.05-9.83a4.86,4.86,0,0,0-3.45-.5A4.09,4.09,0,0,1,166.79,163.59Z" style="fill:#fff"></path><path d="M153.59,143l6.92,5.56a18.14,18.14,0,0,0-.32,3.18c-2.48-.36-6.05-3.06-6.51-5.63A8.55,8.55,0,0,1,153.59,143Z" style="opacity:0.2"></path><path d="M143.89,127.56c1.75,9.31,2.3,13.27,7.61,17.74,8,6.71,19,3.16,20-6.33,1-8.54-2.07-22.32-11.66-25.4A12.14,12.14,0,0,0,143.89,127.56Z" style="fill:#7f3e3b"></path><path d="M163.79,114.06c-10.2-5-30.29,1.23-26.25,12.38l8.16,5.67C150.79,131.9,164.55,125.92,163.79,114.06Z" style="fill:#263238"></path><path d="M158.64,129.11c.11.79.61,1.4,1.12,1.36s.82-.71.7-1.49-.61-1.4-1.11-1.36S158.52,128.32,158.64,129.11Z" style="fill:#263238"></path><path d="M168.14,128.55c.12.79.62,1.4,1.12,1.36s.82-.71.71-1.49-.61-1.4-1.12-1.36S168,127.76,168.14,128.55Z" style="fill:#263238"></path><path d="M168.64,127.12l1.77-.68S169.67,128,168.64,127.12Z" style="fill:#263238"></path><path d="M165.69,130a23.17,23.17,0,0,0,3.47,4.82,3.16,3.16,0,0,1-2.68.73Z" style="fill:#630f0f"></path><path d="M162.46,138.83a8.09,8.09,0,0,0,1.31,0,.21.21,0,0,0,.2-.25.26.26,0,0,0-.26-.22,6.51,6.51,0,0,1-5.33-2.07.24.24,0,0,0-.33,0,.23.23,0,0,0,0,.32A7,7,0,0,0,162.46,138.83Z" style="fill:#263238"></path><path d="M142.52,133.48a6.51,6.51,0,0,0,3.2,4.18c2,1,3.42-1.26,3.2-3.83-.19-2.32-1.47-5.63-3.65-5.52S141.89,131.12,142.52,133.48Z" style="fill:#7f3e3b"></path><path d="M155.91,123a.39.39,0,0,0,.32-.13,3.41,3.41,0,0,1,3-1.16.42.42,0,0,0,.51-.36.49.49,0,0,0-.39-.55,4.23,4.23,0,0,0-3.83,1.42.46.46,0,0,0,.06.65A.44.44,0,0,0,155.91,123Z" style="fill:#263238"></path><path d="M170.82,123.9a.38.38,0,0,0,.32-.08.45.45,0,0,0,.06-.64,4.89,4.89,0,0,0-3.81-2,.43.43,0,0,0-.4.49.51.51,0,0,0,.51.44,3.91,3.91,0,0,1,3,1.63A.45.45,0,0,0,170.82,123.9Z" style="fill:#263238"></path><path d="M159.13,127.68l1.77-.68S160.17,128.54,159.13,127.68Z" style="fill:#263238"></path><path d="M169.84,200.14a.65.65,0,0,1-.43-.17l-16.56-15.51a.63.63,0,0,1,0-.89.64.64,0,0,1,.89,0l16.56,15.51a.63.63,0,0,1-.43,1.09Z" style="fill:#407BFF"></path><path d="M160.36,189.57l-2.93-.28a3.39,3.39,0,0,0-2.91,1.16l-3.4,3.9a6.39,6.39,0,0,0-1.39,5.69l.3,1.25c4.83.8,10.64-1.89,10.64-1.89l1.74-.58a2.85,2.85,0,0,0,1.89-3.59l-1.11-3.46A3.28,3.28,0,0,0,160.36,189.57Z" style="fill:#7f3e3b"></path><path d="M143.68,175.6l-.52,1.38-.57,1.53c-.36,1-.73,2.07-1.08,3.12-.7,2.1-1.3,4.23-1.87,6.36s-1,4.27-1.39,6.4-.61,4.26-.79,6.37l-.14-1.32a3.5,3.5,0,0,0-.57-1,2.82,2.82,0,0,0-1.14-.85c-.66-.2-.52.05-.09.09a8.81,8.81,0,0,0,1.83,0c.74-.06,1.54-.19,2.36-.34,1.67-.3,3.42-.75,5.19-1.23s3.61-1.06,5.34-1.55l.2-.06a3.51,3.51,0,0,1,3.23,6.06,46.5,46.5,0,0,1-5,3.69,44.43,44.43,0,0,1-5.63,3.07,29.93,29.93,0,0,1-3.24,1.22,17.7,17.7,0,0,1-3.93.8,11.17,11.17,0,0,1-5.77-.94,9,9,0,0,1-3.34-2.71,9.88,9.88,0,0,1-1.71-3.64,5,5,0,0,1-.13-.93v-.4a59.64,59.64,0,0,1,.17-8c.1-1.33.28-2.63.45-3.94s.42-2.6.69-3.88a74.29,74.29,0,0,1,1.94-7.57c.4-1.24.8-2.48,1.28-3.71.23-.61.46-1.23.72-1.84s.51-1.19.86-1.95a7,7,0,0,1,12.86,5.38Z" style="fill:#7f3e3b"></path><path d="M142.27,159.72c-6.42,1-9,2.95-14.25,15.86,2.39,4.81,13.54,9.42,13.54,9.42S147.59,168.32,142.27,159.72Z" style="fill:#407BFF"></path><path d="M152.93,221.84a170.62,170.62,0,0,0,7.72-15.28c3.52-8.06,6.45-17.66,6.45-17.66s24.53-.07,29,2.86c-3,10.3-15.49,35-15.49,35S162.1,225.74,152.93,221.84Z" style="fill:#fff"></path><path d="M177.92,228.26l-22.25-1.45c-2.24-.15-3.33-1.82-2.42-3.73l15.18-31.88a6.35,6.35,0,0,1,5.72-3.2l22.24,1.45c2.24.15,3.33,1.82,2.42,3.73l-15.17,31.88A6.35,6.35,0,0,1,177.92,228.26Z" style="fill:#407BFF"></path><path d="M187.87,205.55l-1.1,3.68a3,3,0,0,0,1.74,3.77l1.63.6L195,202.66l-4.43.53A3.28,3.28,0,0,0,187.87,205.55Z" style="fill:#7f3e3b"></path></g><g id="freepik--character-2--inject-35"><path d="M323.13,294.78c6.92-40.85,9.8-90.09,9.8-90.09l-38.11-.62s4.39,66.38,5.91,94.18c1.58,28.9,3.23,94.8,3.23,94.8h17.51S327,330.51,323.13,294.78Z" style="fill:#263238"></path><path d="M318.73,406.46l.51,8.15a1.59,1.59,0,0,1-1.57,1.61c-2.59,0-3.76-.41-8.27-.48-5.28-.09-9.78.58-16,.48-3.75-.06-3.24-4.62-.32-5.39,6.24-1.65,9.24-4.74,12.26-6.55.95-2.94.71-12.9.71-12.9l14.34.95S318.78,402.2,318.73,406.46Z" style="fill:#407BFF"></path><path d="M369.69,413.41l-1.82-7c-.64-4.26-.7-14.13-.7-14.13l-13.43.34s1.39,9,1.42,12.17c-2.51,1.81-5,4.34-10.54,6-2.59.77-2.17,5.33,1.31,5.39,5.77.1,9.85-.57,14.76-.48,4.21.07,4.71.48,7.12.48A2,2,0,0,0,369.69,413.41Z" style="fill:#407BFF"></path><path d="M304.69,395.36l16.11.25a1.3,1.3,0,0,0,1.31-1.13l.69-5.32a1.3,1.3,0,0,0-1.25-1.47L304,387.14a1.31,1.31,0,0,0-1.33,1.48l.73,5.61A1.3,1.3,0,0,0,304.69,395.36Z" style="fill:#263238"></path><path d="M304.69,395.36l16.11.25a1.3,1.3,0,0,0,1.31-1.13l.69-5.32a1.3,1.3,0,0,0-1.25-1.47L304,387.14a1.31,1.31,0,0,0-1.33,1.48l.73,5.61A1.3,1.3,0,0,0,304.69,395.36Z" style="fill:#fff;opacity:0.1"></path><path d="M355,293.62c-5.18-41.07-5.56-68.52-11.31-88.76L309,204.34s15.66,65.16,22.88,92.3,20.34,95.67,20.34,95.67l17,.21S364.66,325.4,355,293.62Z" style="fill:#263238"></path><path d="M352.26,395.36l16.1.25a1.3,1.3,0,0,0,1.32-1.21l.35-5.32a1.3,1.3,0,0,0-1.26-1.39l-17.53-.54a1.31,1.31,0,0,0-1.32,1.55l1.08,5.6A1.31,1.31,0,0,0,352.26,395.36Z" style="fill:#263238"></path><path d="M352.26,395.36l16.1.25a1.3,1.3,0,0,0,1.32-1.21l.35-5.32a1.3,1.3,0,0,0-1.26-1.39l-17.53-.54a1.31,1.31,0,0,0-1.32,1.55l1.08,5.6A1.31,1.31,0,0,0,352.26,395.36Z" style="fill:#fff;opacity:0.1"></path><path d="M304.63,141.57c-2.36,4.54-4.8,9.05-7.27,13.53s-5,9-7.5,13.41l-3.78,6.67-.94,1.67-.47.83-.25.43-.35.56a17.37,17.37,0,0,1-3.84,4.38,11.74,11.74,0,0,1-6.61,2.66,11.6,11.6,0,0,1-6.33-1.43,16.11,16.11,0,0,1-4.05-3.15,19.07,19.07,0,0,1-1.5-1.8,21.94,21.94,0,0,1-1.31-2,3.4,3.4,0,0,1,4.45-4.79l.84.42c.35.18.89.53,1.34.77s.95.51,1.41.72a8.8,8.8,0,0,0,2.53.79c.71.09,1.15-.1,1.2-.27a1,1,0,0,0,0-.26,1.36,1.36,0,0,1,.16-.36,15.27,15.27,0,0,0,.81-1.71l.12-.29.2-.42.41-.87.83-1.76q1.65-3.49,3.38-7,3.39-6.95,7-13.78c2.37-4.57,4.79-9.09,7.33-13.58a6.93,6.93,0,0,1,12.19,6.58Z" style="fill:#ff8b7b"></path><path d="M303.87,122.21c-8.51,2.35-17.32,16.86-17.32,16.86l12.21,19.65s5.82-7.65,12-17.26C317.52,131,314.19,119.37,303.87,122.21Z" style="fill:#407BFF"></path><path d="M339.51,122.48a142.11,142.11,0,0,0-28.88-1.82,20.56,20.56,0,0,0-19.62,19c-1.09,15.62.91,37.91,3.78,64.4l48.88.79c1.29-13.25-.67-39,5.05-69.15A11.27,11.27,0,0,0,339.51,122.48Z" style="fill:#407BFF"></path><path d="M329.81,98.76c-1.39,6.61-2.85,18.76,1.78,23.45-3.68,3.42-8.49,7.35-16.44,7.23s-6.5-5.49-4.37-8.26c7.49-1.41,7.36-6.94,6.13-12.19Z" style="fill:#ff8b7b"></path><path d="M315.9,129.44s3.36,1.08,5.29,6c6.19-1.66,12.6-8.06,13-14.26a10.47,10.47,0,0,0-3.88-.74S326.88,126.61,315.9,129.44Z" style="fill:#fff"></path><path d="M311.62,128.88s-2.89-.16-5.63,5.92c-6.26-1.36,1.21-12.56,3.91-14.15a9.74,9.74,0,0,1,4-.5S308.33,122.19,311.62,128.88Z" style="fill:#fff"></path><path d="M324.55,102.94l-7.64,6a21.22,21.22,0,0,1,.6,3.71c2.86-.27,6.81-3.19,7.15-6.16A10,10,0,0,0,324.55,102.94Z" style="opacity:0.2"></path><path d="M314,75.78c-2.89.07-8,4.1-8,13C315.24,83,314,75.78,314,75.78Z" style="fill:#263238"></path><path d="M331.78,88.74c-.93,9-1,14.33-5.77,18.74-7.15,6.64-18.15,2-19.94-7.18-1.61-8.22.17-21.58,9.17-24.73A12.48,12.48,0,0,1,331.78,88.74Z" style="fill:#ff8b7b"></path><path d="M312.65,97.85c2-.41,5.52.83,6.61,2.88,0,0-4.47-1.74-7.13-1.07C311.1,99.12,312,98,312.65,97.85Z" style="fill:#263238"></path><path d="M309.15,98.08a3.15,3.15,0,0,0-3.6,2.81s2.51-1.72,4.62-1.22C310.7,99.14,309.64,98.17,309.15,98.08Z" style="fill:#263238"></path><path d="M332.06,95.82c-4.21,2.94-6.64,1.27-6.71-3.26-.06-4.12,4.57-11.75,1.67-14s-14.54,5.07-16.15-.15c-.8-2.58,7.21-6,14.16-5.57,6.76.42,9.37,4.42,9.21,7.38C337.5,80.15,339.76,91.13,332.06,95.82Z" style="fill:#263238"></path><path d="M334.8,97.17a8.49,8.49,0,0,1-4.38,4.45c-2.51,1-3.84-1.44-3.2-4.22.57-2.5,2.57-6.06,5.12-5.89S335.91,94.63,334.8,97.17Z" style="fill:#ff8b7b"></path><path d="M317.21,90.28c0,.73-.45,1.31-.93,1.29s-.85-.64-.82-1.38.45-1.31.93-1.29S317.24,89.54,317.21,90.28Z" style="fill:#263238"></path><path d="M308.67,89.63c0,.74-.44,1.32-.92,1.29s-.85-.64-.82-1.37.44-1.32.92-1.29S308.7,88.9,308.67,89.63Z" style="fill:#263238"></path><path d="M312,90.41s-1.84,4.17-3.77,6.12c1.25,1.28,3.49.84,3.49.84Z" style="fill:#ff5652"></path><path d="M309.88,101.2a6,6,0,0,0,4.75-.71.22.22,0,0,0,.05-.3.21.21,0,0,0-.3,0,5.8,5.8,0,0,1-5.25.37.21.21,0,0,0-.28.12.21.21,0,0,0,.12.28A7.32,7.32,0,0,0,309.88,101.2Z" style="fill:#263238"></path><path d="M321.45,88a.46.46,0,0,0,.21-.08.44.44,0,0,0,.11-.6,4.35,4.35,0,0,0-3.45-2,.43.43,0,0,0-.42.44.44.44,0,0,0,.44.43h0a3.46,3.46,0,0,1,2.72,1.58A.44.44,0,0,0,321.45,88Z" style="fill:#263238"></path><path d="M306,86.33a.46.46,0,0,0,.4-.11,3.41,3.41,0,0,1,3-1,.43.43,0,0,0,.52-.32.44.44,0,0,0-.32-.52,4.26,4.26,0,0,0-3.76,1.17.43.43,0,0,0,0,.61A.39.39,0,0,0,306,86.33Z" style="fill:#263238"></path><path d="M321.2,254.48c1.68,6.79,3.37,13.61,5,20-.78,5.78-1.62,11.59-2.55,17.25a152.77,152.77,0,0,1-23.17,1.74c-.59-10.24-1.43-23.94-2.29-37.53Z"></path><path d="M353.87,284.41a150.72,150.72,0,0,1-23.58,6.23c-1.24-4.79-2.64-10.29-4.11-16.14.93-6.95,1.76-13.86,2.49-20.5l21.95-1.39C351.52,262.13,352.52,272.68,353.87,284.41Z"></path><path d="M291.43,181.44c-.05-10.48-1.14-25.52-1.14-25.52,6.3-10.4,7.45-30,14.93-34.58a7.23,7.23,0,0,1,2.6-.69.39.39,0,0,1,.29.67c-2,1.88-6.32,7.34-7.38,20.34,12.81,1.66,30.39.74,30.39.74s1-14.08,4.23-20.7a.53.53,0,0,1,.57-.28l2.17.42a.5.5,0,0,1,.37.69c-4.6,11.29-4,33,7.74,33.93-.61,4.79-.62,25.16-.62,25.16s14.15,42.07,10.56,95.13c-23.06,11-62.48,3.56-62.48,3.56S291.49,191.92,291.43,181.44Z" style="fill:#263238"></path><path d="M265,172.64l-5.3-6.1-5.89,8.56s3.36,5.49,8.8,2.36Z" style="fill:#ff8b7b"></path><path d="M252.11,165.9l-1.54,4.53a1.79,1.79,0,0,0,.32,1.92l3,2.75,5.89-8.56-5-2.22C253.77,163.91,252.53,164.67,252.11,165.9Z" style="fill:#ff8b7b"></path><path d="M304.62,153.84s1.42-1.12.79-3.67c.43-.16,1,.5,1,.5S306.25,153.64,304.62,153.84Z" style="fill:#263238"></path><path d="M310.23,157.39a6.61,6.61,0,0,0-5-4,6.59,6.59,0,0,0-5.36-3.51c-3.89-.31-8.42,12.22-2.48,14.41C301.33,169.27,311.76,161,310.23,157.39Z" style="fill:#407BFF"></path><path d="M310.23,157.39a6.61,6.61,0,0,0-5-4,6.59,6.59,0,0,0-5.36-3.51c-3.89-.31-8.42,12.22-2.48,14.41C301.33,169.27,311.76,161,310.23,157.39Z" style="fill:#fff;opacity:0.30000000000000004"></path><path d="M297.08,164.06l-.45,0,.33.14-.06.17.27,0,0,.21.2,0,.07.23.15-.14.17.28v-.41A1.68,1.68,0,0,0,297.08,164.06Z" style="fill:#263238"></path><path d="M289.79,148.94s-.4-1.76-3-2.28c0-.47.89-.72.89-.72S290.31,147.39,289.79,148.94Z" style="fill:#263238"></path><path d="M295.41,145.4a6.58,6.58,0,0,0-5.74,2.84,6.59,6.59,0,0,0-5.46,3.34c-1.95,3.38,7.43,12.85,12,8.41C302.32,158.53,299.31,145.55,295.41,145.4Z" style="fill:#407BFF"></path><path d="M295.41,145.4a6.58,6.58,0,0,0-5.74,2.84,6.59,6.59,0,0,0-5.46,3.34c-1.95,3.38,7.43,12.85,12,8.41C302.32,158.53,299.31,145.55,295.41,145.4Z" style="fill:#fff;opacity:0.6000000000000001"></path><path d="M295.8,160.14l-.17.41.27-.24.13.14.14-.23.21.07.05-.2.24,0-.07-.2.33,0-.37-.18A1.59,1.59,0,0,0,295.8,160.14Z" style="fill:#263238"></path><path d="M312.25,149.78s-1.05-1.47.26-3.74c-.37-.28-1.13.19-1.13.19S310.74,149.14,312.25,149.78Z" style="fill:#263238"></path><path d="M305.87,151.64a6.59,6.59,0,0,1,5.93-2.41,6.61,6.61,0,0,1,6.12-1.89c3.83.78,4.71,14.08-1.61,14.53C311.13,165.52,303.4,154.67,305.87,151.64Z" style="fill:#407BFF"></path><path d="M305.87,151.64a6.59,6.59,0,0,1,5.93-2.41,6.61,6.61,0,0,1,6.12-1.89c3.83.78,4.71,14.08-1.61,14.53C311.13,165.52,303.4,154.67,305.87,151.64Z" style="fill:#fff;opacity:0.5"></path><path d="M316.66,161.7l.42.15-.36,0,0,.18-.27,0-.08.2-.18-.09-.14.2-.1-.18-.24.23.11-.4A1.61,1.61,0,0,1,316.66,161.7Z" style="fill:#263238"></path><path d="M327.85,149.19s.88-1.58,3.49-1.37c.1-.45-.65-.94-.65-.94S327.79,147.55,327.85,149.19Z" style="fill:#263238"></path><path d="M323.44,144.23a6.59,6.59,0,0,1,4.72,4.32,6.61,6.61,0,0,1,4.33,4.72c.93,3.8-10.7,10.29-13.82,4.77C313.16,154.93,319.65,143.29,323.44,144.23Z" style="fill:#407BFF"></path><path d="M323.44,144.23a6.59,6.59,0,0,1,4.72,4.32,6.61,6.61,0,0,1,4.33,4.72c.93,3.8-10.7,10.29-13.82,4.77C313.16,154.93,319.65,143.29,323.44,144.23Z" style="fill:#fff;opacity:0.7000000000000001"></path><path d="M319,158.28l0,.44-.19-.3-.16.1-.08-.27h-.21v-.2l-.24,0,.12-.17-.31-.12.42-.07A1.62,1.62,0,0,1,319,158.28Z" style="fill:#263238"></path><path d="M281.14,148s.88-1.58,3.49-1.37c.1-.46-.65-.94-.65-.94S281.08,146.34,281.14,148Z" style="fill:#263238"></path><path d="M276.73,143a6.57,6.57,0,0,1,4.72,4.32,6.61,6.61,0,0,1,4.33,4.72c.93,3.79-10.7,10.29-13.82,4.77C266.45,153.71,272.94,142.08,276.73,143Z" style="fill:#407BFF"></path><path d="M276.73,143a6.57,6.57,0,0,1,4.72,4.32,6.61,6.61,0,0,1,4.33,4.72c.93,3.79-10.7,10.29-13.82,4.77C266.45,153.71,272.94,142.08,276.73,143Z" style="fill:#fff;opacity:0.7000000000000001"></path><path d="M272.27,157.07l0,.44-.19-.3-.16.09-.07-.26h-.22v-.2l-.25,0,.12-.18-.31-.12.42-.06A1.62,1.62,0,0,1,272.27,157.07Z" style="fill:#263238"></path><path d="M293,161.24s-1.93-1.54-1.07-5c-.59-.22-1.41.68-1.41.68S290.77,161,293,161.24Z" style="fill:#263238"></path><path d="M285.33,166.08a9,9,0,0,1,6.86-5.41,9,9,0,0,1,7.31-4.78c5.31-.43,11.49,16.67,3.38,19.65C297.47,182.28,283.24,171,285.33,166.08Z" style="fill:#407BFF"></path><path d="M285.33,166.08a9,9,0,0,1,6.86-5.41,9,9,0,0,1,7.31-4.78c5.31-.43,11.49,16.67,3.38,19.65C297.47,182.28,283.24,171,285.33,166.08Z" style="fill:#fff;opacity:0.30000000000000004"></path><path d="M303.27,175.19l.61,0-.45.19.09.23-.37.05,0,.3-.27-.06-.1.32-.21-.2-.23.39v-.57A2.11,2.11,0,0,1,303.27,175.19Z" style="fill:#263238"></path><path d="M313.21,154.55s.55-2.4,4.06-3.11c0-.63-1.21-1-1.21-1S312.51,152.43,313.21,154.55Z" style="fill:#263238"></path><path d="M305.55,149.72a9,9,0,0,1,7.83,3.88,9,9,0,0,1,7.45,4.55c2.66,4.62-10.13,17.53-16.3,11.48C296.12,167.63,300.23,149.92,305.55,149.72Z" style="fill:#407BFF"></path><path d="M305.55,149.72a9,9,0,0,1,7.83,3.88,9,9,0,0,1,7.45,4.55c2.66,4.62-10.13,17.53-16.3,11.48C296.12,167.63,300.23,149.92,305.55,149.72Z" style="fill:#fff;opacity:0.6000000000000001"></path><path d="M305,169.83l.23.56-.36-.32-.17.18-.2-.31-.28.09-.07-.27-.33.05.09-.27-.45,0,.52-.24A2.13,2.13,0,0,1,305,169.83Z" style="fill:#263238"></path><path d="M282.58,155.7s1.43-2-.36-5.1c.51-.38,1.54.26,1.54.26S284.63,154.82,282.58,155.7Z" style="fill:#263238"></path><path d="M291.27,158.24a9,9,0,0,0-8.09-3.3,9,9,0,0,0-8.35-2.56c-5.22,1.06-6.42,19.2,2.2,19.81C284.1,177.17,294.65,162.36,291.27,158.24Z" style="fill:#407BFF"></path><path d="M291.27,158.24a9,9,0,0,0-8.09-3.3,9,9,0,0,0-8.35-2.56c-5.22,1.06-6.42,19.2,2.2,19.81C284.1,177.17,294.65,162.36,291.27,158.24Z" style="fill:#fff;opacity:0.5"></path><path d="M276.56,172l-.57.2.48.06,0,.25.37-.06.11.27.25-.12.18.28.14-.25.33.31-.16-.55A2.23,2.23,0,0,0,276.56,172Z" style="fill:#263238"></path><path d="M261.29,154.89s-1.2-2.15-4.76-1.86c-.13-.63.89-1.28.89-1.28S261.38,152.66,261.29,154.89Z" style="fill:#263238"></path><path d="M267.31,148.12a9,9,0,0,0-6.45,5.9,9,9,0,0,0-5.89,6.44c-1.28,5.18,14.59,14,18.85,6.51C281.34,162.72,272.48,146.84,267.31,148.12Z" style="fill:#407BFF"></path><path d="M267.31,148.12a9,9,0,0,0-6.45,5.9,9,9,0,0,0-5.89,6.44c-1.28,5.18,14.59,14,18.85,6.51C281.34,162.72,272.48,146.84,267.31,148.12Z" style="fill:#fff;opacity:0.7000000000000001"></path><path d="M273.4,167.29l-.06.61.26-.41.21.12.11-.35h.3V167l.32-.05-.15-.24.41-.16-.56-.09A2.22,2.22,0,0,0,273.4,167.29Z" style="fill:#263238"></path><path d="M253.44,157.17v47h80.8v-47Zm44.77,10.32a3.69,3.69,0,0,1-2.69,1.18h-17a3.92,3.92,0,0,1-3.81-4,4.13,4.13,0,0,1,1.12-2.85,3.67,3.67,0,0,1,2.69-1.18h17a3.92,3.92,0,0,1,3.81,4A4.08,4.08,0,0,1,298.21,167.49Z" style="fill:#407BFF"></path><rect x="320.59" y="157.17" width="13.65" height="46.94" style="opacity:0.30000000000000004"></rect><path d="M351.16,134.59c.56.85,1,1.51,1.42,2.26s.85,1.46,1.26,2.19c.82,1.47,1.6,3,2.36,4.44a95.47,95.47,0,0,1,4,9.26q.88,2.38,1.65,4.83c.49,1.65.93,3.31,1.33,5a55,55,0,0,1,1.45,10.55l0,.36v.58a8.71,8.71,0,0,1-.06,1.14,12.2,12.2,0,0,1-.4,2.2,13.46,13.46,0,0,1-1.65,3.74,19.89,19.89,0,0,1-4.48,4.9,30.5,30.5,0,0,1-4.73,3.11,50,50,0,0,1-4.75,2.27,74.17,74.17,0,0,1-9.55,3.17,79.59,79.59,0,0,1-9.72,1.94,3.45,3.45,0,0,1-1.77-6.61l.13,0A128,128,0,0,0,344,182.06a32.81,32.81,0,0,0,6.46-4.77,7.65,7.65,0,0,0,1.66-2.24,1.64,1.64,0,0,0,.16-.63.35.35,0,0,0,0-.13l0,0v0l0-.22a63.72,63.72,0,0,0-4.7-16.24c-1.15-2.7-2.39-5.38-3.73-8-.66-1.33-1.36-2.64-2.07-3.93l-1.09-1.92c-.34-.62-.75-1.31-1-1.8l-.08-.14a6.92,6.92,0,0,1,11.72-7.37Z" style="fill:#ff8b7b"></path><path d="M340.68,122.73c15.14,3.08,20.2,22,20.2,22l-18,14.21s-4.83-4.6-6.75-15.87C335.24,137.71,337.64,122.73,340.68,122.73Z" style="fill:#407BFF"></path><path d="M330.3,189.41l-9.08-1.74,1,11s8.42.58,9.45-3.84Z" style="fill:#ff8b7b"></path><path d="M313.23,193l1,3.81a3.2,3.2,0,0,0,3.41,2.36l4.6-.45-1-11-5.66,1.38A3.2,3.2,0,0,0,313.23,193Z" style="fill:#ff8b7b"></path></g></svg>